<?xml version="1.0" standalone="yes"?>
<svg xmlns="http://www.w3.org/2000/svg" width="657" height="613">
<path style="fill:#ffffff; stroke:none;" d="M0 0L0 613L657 613L657 0L0 0z"/>
<path style="fill:#fadfa2; stroke:none;" d="M459 141L459 142L467 142L459 141M452.667 142.333L453.333 142.667L452.667 142.333z"/>
<path style="fill:#f6c864; stroke:none;" d="M454.667 142.333L455.333 142.667L454.667 142.333z"/>
<path style="fill:#f3b62f; stroke:none;" d="M456 142L457 143L456 142z"/>
<path style="fill:#f1a501; stroke:none;" d="M167 472C192.37 467.08 218.487 463.635 243 455.139C250.773 452.445 258.58 449.802 266 446.215C268.267 445.12 272.026 441.919 274.682 442.588C278.992 443.673 277 458.546 277 462C277 480.066 277.2 514.826 306 507.073C323.528 502.354 341.121 480.215 354 467.961C358.34 463.833 366.156 459.075 367.682 453C370.38 442.257 368 428.08 368 417C368 412.07 367.019 406.19 370.318 402.09C379.742 390.373 393.484 380.956 403.961 370C421.925 351.213 437.599 330.024 451.316 308C462.866 289.454 472.376 269.56 479.692 249C484.817 234.598 489 220.001 492 205C494.059 194.704 496.912 183.562 496.541 173C495.177 134.155 451.515 142.82 427 147.801C373.097 158.754 323.646 187.502 282 222.59C271.142 231.738 260.771 241.607 251.09 252C246.29 257.152 241.865 264.499 235.961 268.397C224.355 276.059 202.256 266.995 189 270.318C182.718 271.893 177.4 279.6 173 284C163.819 293.181 155.179 302.82 146 312C140.072 317.929 132.885 324.303 131.329 333C126.047 362.531 157.525 361 177 361C180.95 361 193.879 358.938 195.887 363.318C197.181 366.143 193.769 369.721 192.515 372C189.092 378.22 186.904 385.288 184.667 392C176.359 416.917 168.136 445.621 167 472z"/>
<path style="fill:#f3b62f; stroke:none;" d="M469 142L470 143L469 142z"/>
<path style="fill:#f6c864; stroke:none;" d="M470 142L471 143L470 142z"/>
<path style="fill:#fadfa2; stroke:none;" d="M471.667 142.333L472.333 142.667L471.667 142.333M446.667 143.333L447.333 143.667L446.667 143.333z"/>
<path style="fill:#f6c864; stroke:none;" d="M448 143L449 144L448 143z"/>
<path style="fill:#f3b62f; stroke:none;" d="M449.667 143.333L450.333 143.667L449.667 143.333z"/>
<path style="fill:#f6c864; stroke:none;" d="M474 143L475 144L474 143z"/>
<path style="fill:#fadfa2; stroke:none;" d="M475 143L476 144L475 143M440.667 144.333L441.333 144.667L440.667 144.333z"/>
<path style="fill:#f6c864; stroke:none;" d="M442 144L443 145L442 144z"/>
<path style="fill:#f3b62f; stroke:none;" d="M443 144L444 145L443 144z"/>
<path style="fill:#f6c864; stroke:none;" d="M476 144L477 145L476 144z"/>
<path style="fill:#fadfa2; stroke:none;" d="M477 144L478 145L477 144M435.667 145.333L436.333 145.667L435.667 145.333z"/>
<path style="fill:#f6c864; stroke:none;" d="M437 145L438 146L437 145z"/>
<path style="fill:#f3b62f; stroke:none;" d="M438 145L439 146L438 145M478 145L479 146L478 145z"/>
<path style="fill:#fadfa2; stroke:none;" d="M479 145L480 146L479 145M430 146L431 147L430 146z"/>
<path style="fill:#f6c864; stroke:none;" d="M431.667 146.333L432.333 146.667L431.667 146.333z"/>
<path style="fill:#f3b62f; stroke:none;" d="M433 146L434 147L433 146z"/>
<path style="fill:#f6c864; stroke:none;" d="M480 146L481 147L480 146z"/>
<path style="fill:#fadfa2; stroke:none;" d="M426 147L427 148L426 147z"/>
<path style="fill:#f6c864; stroke:none;" d="M427 147L428 148L427 147z"/>
<path style="fill:#f3b62f; stroke:none;" d="M428 147L429 148L428 147M481 147L482 148L481 147z"/>
<path style="fill:#fadfa2; stroke:none;" d="M482 147L483 148L482 147M421 148L422 149L421 148z"/>
<path style="fill:#f6c864; stroke:none;" d="M422 148L423 149L422 148z"/>
<path style="fill:#f3b62f; stroke:none;" d="M423 148L424 149L423 148z"/>
<path style="fill:#f6c864; stroke:none;" d="M483 148L484 149L483 148z"/>
<path style="fill:#fadfa2; stroke:none;" d="M417 149L418 150L417 149z"/>
<path style="fill:#f6c864; stroke:none;" d="M418 149L419 150L418 149z"/>
<path style="fill:#f3b62f; stroke:none;" d="M419 149L420 150L419 149M484 149L485 150L484 149z"/>
<path style="fill:#fadfa2; stroke:none;" d="M414 150L415 151L414 150z"/>
<path style="fill:#f6c864; stroke:none;" d="M415 150L416 151L415 150z"/>
<path style="fill:#f3b62f; stroke:none;" d="M485 150L486 151L485 150z"/>
<path style="fill:#fadfa2; stroke:none;" d="M410 151L411 152L410 151z"/>
<path style="fill:#f6c864; stroke:none;" d="M411 151L412 152L411 151z"/>
<path style="fill:#f3b62f; stroke:none;" d="M412 151L413 152L412 151M486 151L487 152L486 151z"/>
<path style="fill:#fadfa2; stroke:none;" d="M407 152L408 153L407 152z"/>
<path style="fill:#f6c864; stroke:none;" d="M408 152L409 153L408 152z"/>
<path style="fill:#f3b62f; stroke:none;" d="M409 152L410 153L409 152M487 152L488 153L487 152z"/>
<path style="fill:#fadfa2; stroke:none;" d="M404 153L405 154L404 153z"/>
<path style="fill:#f6c864; stroke:none;" d="M405 153L406 154L405 153M488 153L489 154L488 153z"/>
<path style="fill:#fadfa2; stroke:none;" d="M400 154L401 155L400 154z"/>
<path style="fill:#f6c864; stroke:none;" d="M401 154L402 155L401 154z"/>
<path style="fill:#f3b62f; stroke:none;" d="M402 154L403 155L402 154z"/>
<path style="fill:#f6c864; stroke:none;" d="M489 154L490 155L489 154z"/>
<path style="fill:#fadfa2; stroke:none;" d="M397 155L398 156L397 155z"/>
<path style="fill:#f6c864; stroke:none;" d="M398 155L399 156L398 155z"/>
<path style="fill:#f3b62f; stroke:none;" d="M399 155L400 156L399 155z"/>
<path style="fill:#fadfa2; stroke:none;" d="M490 155L491 156L490 155M394 156L395 157L394 156z"/>
<path style="fill:#f6c864; stroke:none;" d="M395 156L396 157L395 156z"/>
<path style="fill:#f3b62f; stroke:none;" d="M396 156L397 157L396 156M490 156L491 157L490 156z"/>
<path style="fill:#fadfa2; stroke:none;" d="M391 157L392 158L391 157z"/>
<path style="fill:#f6c864; stroke:none;" d="M392 157L393 158L392 157z"/>
<path style="fill:#f3b62f; stroke:none;" d="M393 157L394 158L393 157z"/>
<path style="fill:#f6c864; stroke:none;" d="M491 157L492 158L491 157z"/>
<path style="fill:#fadfa2; stroke:none;" d="M388 158L389 159L388 158z"/>
<path style="fill:#f6c864; stroke:none;" d="M389 158L390 159L389 158z"/>
<path style="fill:#f3b62f; stroke:none;" d="M390 158L391 159L390 158z"/>
<path style="fill:#fadfa2; stroke:none;" d="M492 158L493 159L492 158M386 159L387 160L386 159z"/>
<path style="fill:#f3b62f; stroke:none;" d="M387 159L388 160L387 159z"/>
<path style="fill:#fadfa2; stroke:none;" d="M493 159L494 160L493 159M383 160L384 161L383 160z"/>
<path style="fill:#f3b62f; stroke:none;" d="M384 160L385 161L384 160z"/>
<path style="fill:#f6c864; stroke:none;" d="M493 160L494 161L493 160z"/>
<path style="fill:#fadfa2; stroke:none;" d="M380 161L381 162L380 161z"/>
<path style="fill:#f6c864; stroke:none;" d="M381 161L382 162L381 161z"/>
<path style="fill:#f3b62f; stroke:none;" d="M493 161L494 162L493 161z"/>
<path style="fill:#fadfa2; stroke:none;" d="M378 162L379 163L378 162z"/>
<path style="fill:#f3b62f; stroke:none;" d="M379 162L380 163L379 162z"/>
<path style="fill:#fadfa2; stroke:none;" d="M494 162L495 163L494 162M375 163L376 164L375 163z"/>
<path style="fill:#f6c864; stroke:none;" d="M376 163L377 164L376 163z"/>
<path style="fill:#f3b62f; stroke:none;" d="M494 163L495 164L494 163z"/>
<path style="fill:#fadfa2; stroke:none;" d="M373 164L374 165L373 164z"/>
<path style="fill:#f6c864; stroke:none;" d="M374 164L375 165L374 164z"/>
<path style="fill:#fadfa2; stroke:none;" d="M495 164L496 165L495 164M371 165L372 166L371 165z"/>
<path style="fill:#f3b62f; stroke:none;" d="M372 165L373 166L372 165z"/>
<path style="fill:#f6c864; stroke:none;" d="M495 165L496 166L495 165M369 166L370 167L369 166z"/>
<path style="fill:#f3b62f; stroke:none;" d="M370 166L371 167L370 166M495 166L496 167L495 166z"/>
<path style="fill:#fadfa2; stroke:none;" d="M366 167L367 168L366 167z"/>
<path style="fill:#f6c864; stroke:none;" d="M367 167L368 168L367 167z"/>
<path style="fill:#fadfa2; stroke:none;" d="M364 168L365 169L364 168z"/>
<path style="fill:#f3b62f; stroke:none;" d="M365 168L366 169L365 168z"/>
<path style="fill:#fadfa2; stroke:none;" d="M496.333 168.667L496.667 169.333L496.333 168.667M362 169L363 170L362 169z"/>
<path style="fill:#f3b62f; stroke:none;" d="M363 169L364 170L363 169z"/>
<path style="fill:#fadfa2; stroke:none;" d="M360 170L361 171L360 170z"/>
<path style="fill:#f3b62f; stroke:none;" d="M361 170L362 171L361 170z"/>
<path style="fill:#f6c864; stroke:none;" d="M496 170L497 171L496 170z"/>
<path style="fill:#fadfa2; stroke:none;" d="M358 171L359 172L358 171z"/>
<path style="fill:#f3b62f; stroke:none;" d="M359 171L360 172L359 171M496 171L497 172L496 171z"/>
<path style="fill:#fadfa2; stroke:none;" d="M356 172L357 173L356 172z"/>
<path style="fill:#f3b62f; stroke:none;" d="M357 172L358 173L357 172z"/>
<path style="fill:#fadfa2; stroke:none;" d="M354 173L355 174L354 173z"/>
<path style="fill:#f3b62f; stroke:none;" d="M355 173L356 174L355 173z"/>
<path style="fill:#f6c864; stroke:none;" d="M352 174L353 175L352 174z"/>
<path style="fill:#f3b62f; stroke:none;" d="M353 174L354 175L353 174z"/>
<path style="fill:#fadfa2; stroke:none;" d="M350 175L351 176L350 175z"/>
<path style="fill:#f3b62f; stroke:none;" d="M351 175L352 176L351 175M496 175L496 179L497 179L496 175z"/>
<path style="fill:#fadfa2; stroke:none;" d="M348 176L349 177L348 176z"/>
<path style="fill:#f3b62f; stroke:none;" d="M349 176L350 177L349 176z"/>
<path style="fill:#fadfa2; stroke:none;" d="M346 177L347 178L346 177z"/>
<path style="fill:#f3b62f; stroke:none;" d="M347 177L348 178L347 177M458 177L459 178L458 177z"/>
<path style="fill:#f6c864; stroke:none;" d="M459 177L460 178L459 177z"/>
<path style="fill:#fadfa2; stroke:none;" d="M460 177L461 178L460 177z"/>
<path style="fill:#f6c864; stroke:none;" d="M461.333 177.667L461.667 178.333L461.333 177.667z"/>
<path style="fill:#fadfa2; stroke:none;" d="M344 178L345 179L344 178z"/>
<path style="fill:#f6c864; stroke:none;" d="M345 178L346 179L345 178z"/>
<path style="fill:#f3b62f; stroke:none;" d="M453 178L454 179L453 178z"/>
<path style="fill:#f6c864; stroke:none;" d="M454 178L455 179L454 178z"/>
<path style="fill:#fadfa2; stroke:none;" d="M455.667 178.333L456.333 178.667L455.667 178.333z"/>
<path style="fill:#ffffff; stroke:none;" d="M227 340L227 341L297 413L298 413C326.098 390.717 355.769 370.841 380.985 345C424.451 300.457 456.02 240.571 461 178C385.655 183.996 319.501 226.754 270.174 282C254.195 299.895 241.07 320.647 227 340z"/>
<path style="fill:#f6c864; stroke:none;" d="M343 179L344 180L343 179z"/>
<path style="fill:#f3b62f; stroke:none;" d="M448 179L449 180L448 179z"/>
<path style="fill:#f6c864; stroke:none;" d="M449 179L450 180L449 179z"/>
<path style="fill:#fadfa2; stroke:none;" d="M450.667 179.333L451.333 179.667L450.667 179.333z"/>
<path style="fill:#f3b62f; stroke:none;" d="M461 179L462 180L461 179z"/>
<path style="fill:#f6c864; stroke:none;" d="M496.333 179.667L496.667 180.333L496.333 179.667z"/>
<path style="fill:#fadfa2; stroke:none;" d="M341 180L342 181L341 180z"/>
<path style="fill:#f3b62f; stroke:none;" d="M342 180L343 181L342 180M442 180L443 181L442 180z"/>
<path style="fill:#f6c864; stroke:none;" d="M443.667 180.333L444.333 180.667L443.667 180.333z"/>
<path style="fill:#fadfa2; stroke:none;" d="M445 180L446 181L445 180M339 181L340 182L339 181z"/>
<path style="fill:#f3b62f; stroke:none;" d="M340 181L341 182L340 181M437 181L438 182L437 181z"/>
<path style="fill:#f6c864; stroke:none;" d="M438 181L439 182L438 181z"/>
<path style="fill:#fadfa2; stroke:none;" d="M439 181L440 182L439 181M496.333 181.667L496.667 182.333L496.333 181.667M337 182L338 183L337 182z"/>
<path style="fill:#f3b62f; stroke:none;" d="M338 182L339 183L338 182M431 182L432 183L431 182z"/>
<path style="fill:#f6c864; stroke:none;" d="M432 182L433 183L432 182z"/>
<path style="fill:#fadfa2; stroke:none;" d="M433.667 182.333L434.333 182.667L433.667 182.333M460 182L461 183L460 182M335 183L336 184L335 183z"/>
<path style="fill:#f6c864; stroke:none;" d="M336 183L337 184L336 183z"/>
<path style="fill:#f3b62f; stroke:none;" d="M425 183L426 184L425 183z"/>
<path style="fill:#f6c864; stroke:none;" d="M426.667 183.333L427.333 183.667L426.667 183.333z"/>
<path style="fill:#fadfa2; stroke:none;" d="M428 183L429 184L428 183z"/>
<path style="fill:#f6c864; stroke:none;" d="M460.333 183.667L460.667 184.333L460.333 183.667M334 184L335 185L334 184z"/>
<path style="fill:#f3b62f; stroke:none;" d="M420 184L421 185L420 184z"/>
<path style="fill:#f6c864; stroke:none;" d="M421 184L422 185L421 184z"/>
<path style="fill:#fadfa2; stroke:none;" d="M422.667 184.333L423.333 184.667L422.667 184.333M332 185L333 186L332 185z"/>
<path style="fill:#f3b62f; stroke:none;" d="M333 185L334 186L333 185M417 185L418 186L417 185z"/>
<path style="fill:#fadfa2; stroke:none;" d="M418 185L419 186L418 185z"/>
<path style="fill:#f3b62f; stroke:none;" d="M460 185L461 186L460 185M495 185L496 186L495 185z"/>
<path style="fill:#f6c864; stroke:none;" d="M331 186L332 187L331 186z"/>
<path style="fill:#f3b62f; stroke:none;" d="M414 186L415 187L414 186z"/>
<path style="fill:#fadfa2; stroke:none;" d="M415 186L416 187L415 186z"/>
<path style="fill:#f6c864; stroke:none;" d="M495 186L496 187L495 186z"/>
<path style="fill:#fadfa2; stroke:none;" d="M329 187L330 188L329 187z"/>
<path style="fill:#f3b62f; stroke:none;" d="M330 187L331 188L330 187z"/>
<path style="fill:#f6c864; stroke:none;" d="M411 187L412 188L411 187z"/>
<path style="fill:#fadfa2; stroke:none;" d="M412 187L413 188L412 187M459.333 187.667L459.667 188.333L459.333 187.667M495.333 187.667L495.667 188.333L495.333 187.667M327 188L328 189L327 188z"/>
<path style="fill:#f3b62f; stroke:none;" d="M328 188L329 189L328 188z"/>
<path style="fill:#f6c864; stroke:none;" d="M408 188L409 189L408 188z"/>
<path style="fill:#fadfa2; stroke:none;" d="M409 188L410 189L409 188z"/>
<path style="fill:#f6c864; stroke:none;" d="M326 189L327 190L326 189z"/>
<path style="fill:#f3b62f; stroke:none;" d="M404 189L405 190L404 189z"/>
<path style="fill:#f6c864; stroke:none;" d="M405 189L406 190L405 189z"/>
<path style="fill:#fadfa2; stroke:none;" d="M406 189L407 190L406 189z"/>
<path style="fill:#f6c864; stroke:none;" d="M459 189L460 190L459 189z"/>
<path style="fill:#fadfa2; stroke:none;" d="M324 190L325 191L324 190z"/>
<path style="fill:#f3b62f; stroke:none;" d="M325 190L326 191L325 190M401 190L402 191L401 190z"/>
<path style="fill:#f6c864; stroke:none;" d="M402 190L403 191L402 190z"/>
<path style="fill:#fadfa2; stroke:none;" d="M403 190L404 191L403 190z"/>
<path style="fill:#f3b62f; stroke:none;" d="M459.333 190.667L459.667 191.333L459.333 190.667z"/>
<path style="fill:#fadfa2; stroke:none;" d="M322 191L323 192L322 191z"/>
<path style="fill:#f6c864; stroke:none;" d="M323 191L324 192L323 191z"/>
<path style="fill:#f3b62f; stroke:none;" d="M398 191L399 192L398 191z"/>
<path style="fill:#fadfa2; stroke:none;" d="M399 191L400 192L399 191z"/>
<path style="fill:#f3b62f; stroke:none;" d="M494 191L495 192L494 191z"/>
<path style="fill:#f6c864; stroke:none;" d="M321 192L322 193L321 192z"/>
<path style="fill:#f3b62f; stroke:none;" d="M395 192L396 193L395 192z"/>
<path style="fill:#fadfa2; stroke:none;" d="M396 192L397 193L396 192z"/>
<path style="fill:#f6c864; stroke:none;" d="M494.333 192.667L494.667 193.333L494.333 192.667z"/>
<path style="fill:#fadfa2; stroke:none;" d="M319 193L320 194L319 193z"/>
<path style="fill:#f3b62f; stroke:none;" d="M320 193L321 194L320 193z"/>
<path style="fill:#f6c864; stroke:none;" d="M392 193L393 194L392 193z"/>
<path style="fill:#fadfa2; stroke:none;" d="M393 193L394 194L393 193M458.333 193.667L458.667 194.333L458.333 193.667z"/>
<path style="fill:#f6c864; stroke:none;" d="M318 194L319 195L318 194z"/>
<path style="fill:#f3b62f; stroke:none;" d="M389 194L390 195L389 194z"/>
<path style="fill:#fadfa2; stroke:none;" d="M390 194L391 195L390 194M494.333 194.667L494.667 195.333L494.333 194.667M316 195L317 196L316 195z"/>
<path style="fill:#f3b62f; stroke:none;" d="M317 195L318 196L317 195M386 195L387 196L386 195z"/>
<path style="fill:#f6c864; stroke:none;" d="M387 195L388 196L387 195M458 195L459 196L458 195z"/>
<path style="fill:#fadfa2; stroke:none;" d="M315 196L316 197L315 196z"/>
<path style="fill:#f6c864; stroke:none;" d="M384 196L385 197L384 196z"/>
<path style="fill:#fadfa2; stroke:none;" d="M385 196L386 197L385 196z"/>
<path style="fill:#f3b62f; stroke:none;" d="M458 196L459 197L458 196z"/>
<path style="fill:#f6c864; stroke:none;" d="M314 197L315 198L314 197M381 197L382 198L381 197z"/>
<path style="fill:#fadfa2; stroke:none;" d="M382 197L383 198L382 197z"/>
<path style="fill:#f3b62f; stroke:none;" d="M493 197L494 198L493 197z"/>
<path style="fill:#fadfa2; stroke:none;" d="M312 198L313 199L312 198z"/>
<path style="fill:#f3b62f; stroke:none;" d="M313 198L314 199L313 198M378 198L379 199L378 198z"/>
<path style="fill:#fadfa2; stroke:none;" d="M379 198L380 199L379 198z"/>
<path style="fill:#f6c864; stroke:none;" d="M493 198L494 199L493 198M311 199L312 200L311 199M376 199L377 200L376 199z"/>
<path style="fill:#fadfa2; stroke:none;" d="M457.333 199.667L457.667 200.333L457.333 199.667M493.333 199.667L493.667 200.333L493.333 199.667M309 200L310 201L309 200z"/>
<path style="fill:#f3b62f; stroke:none;" d="M310 200L311 201L310 200M374 200L375 201L374 200z"/>
<path style="fill:#fadfa2; stroke:none;" d="M375 200L376 201L375 200M308 201L309 202L308 201M373 201L374 202L373 201z"/>
<path style="fill:#f6c864; stroke:none;" d="M457 201L458 202L457 201M307 202L308 203L307 202M371 202L372 203L371 202z"/>
<path style="fill:#f3b62f; stroke:none;" d="M457 202L458 203L457 202M492 202L493 203L492 202z"/>
<path style="fill:#fadfa2; stroke:none;" d="M305 203L306 204L305 203z"/>
<path style="fill:#f3b62f; stroke:none;" d="M306 203L307 204L306 203z"/>
<path style="fill:#f6c864; stroke:none;" d="M369 203L370 204L369 203M492.333 203.667L492.667 204.333L492.333 203.667M304 204L305 205L304 204z"/>
<path style="fill:#f3b62f; stroke:none;" d="M367 204L368 205L367 204z"/>
<path style="fill:#fadfa2; stroke:none;" d="M368 204L369 205L368 204M302 205L303 206L302 205z"/>
<path style="fill:#f3b62f; stroke:none;" d="M303 205L304 206L303 205z"/>
<path style="fill:#fadfa2; stroke:none;" d="M366 205L367 206L366 205M456.333 205.667L456.667 206.333L456.333 205.667M492 205L493 206L492 205M301 206L302 207L301 206z"/>
<path style="fill:#f6c864; stroke:none;" d="M364 206L365 207L364 206M300 207L301 208L300 207M362 207L363 208L362 207M456 207L457 208L456 207z"/>
<path style="fill:#f3b62f; stroke:none;" d="M491 207L492 208L491 207z"/>
<path style="fill:#f6c864; stroke:none;" d="M299 208L300 209L299 208z"/>
<path style="fill:#f3b62f; stroke:none;" d="M360 208L361 209L360 208z"/>
<path style="fill:#fadfa2; stroke:none;" d="M361 208L362 209L361 208z"/>
<path style="fill:#f3b62f; stroke:none;" d="M456 208L457 209L456 208z"/>
<path style="fill:#f6c864; stroke:none;" d="M491 208L492 209L491 208z"/>
<path style="fill:#fadfa2; stroke:none;" d="M297 209L298 210L297 209z"/>
<path style="fill:#f3b62f; stroke:none;" d="M298 209L299 210L298 209z"/>
<path style="fill:#fadfa2; stroke:none;" d="M359 209L360 210L359 209M491.333 209.667L491.667 210.333L491.333 209.667M296 210L297 211L296 210z"/>
<path style="fill:#f6c864; stroke:none;" d="M357 210L358 211L357 210M295 211L296 212L295 211M355 211L356 212L355 211z"/>
<path style="fill:#fadfa2; stroke:none;" d="M455 211L456 212L455 211z"/>
<path style="fill:#f6c864; stroke:none;" d="M294 212L295 213L294 212z"/>
<path style="fill:#f3b62f; stroke:none;" d="M353 212L354 213L353 212z"/>
<path style="fill:#fadfa2; stroke:none;" d="M354 212L355 213L354 212z"/>
<path style="fill:#f6c864; stroke:none;" d="M455.333 212.667L455.667 213.333L455.333 212.667z"/>
<path style="fill:#f3b62f; stroke:none;" d="M490 212L491 213L490 212z"/>
<path style="fill:#fadfa2; stroke:none;" d="M292 213L293 214L292 213z"/>
<path style="fill:#f3b62f; stroke:none;" d="M293 213L294 214L293 213z"/>
<path style="fill:#fadfa2; stroke:none;" d="M352 213L353 214L352 213z"/>
<path style="fill:#f6c864; stroke:none;" d="M490 213L491 214L490 213z"/>
<path style="fill:#fadfa2; stroke:none;" d="M291 214L292 215L291 214z"/>
<path style="fill:#f6c864; stroke:none;" d="M350 214L351 215L350 214z"/>
<path style="fill:#f3b62f; stroke:none;" d="M455 214L456 215L455 214z"/>
<path style="fill:#fadfa2; stroke:none;" d="M490 214L491 215L490 214z"/>
<path style="fill:#f6c864; stroke:none;" d="M290 215L291 216L290 215M348 215L349 216L348 215z"/>
<path style="fill:#f3b62f; stroke:none;" d="M289 216L290 217L289 216M346 216L347 217L346 216z"/>
<path style="fill:#fadfa2; stroke:none;" d="M347 216L348 217L347 216M454.333 216.667L454.667 217.333L454.333 216.667z"/>
<path style="fill:#f3b62f; stroke:none;" d="M489 216L490 217L489 216z"/>
<path style="fill:#fadfa2; stroke:none;" d="M287 217L288 218L287 217z"/>
<path style="fill:#f3b62f; stroke:none;" d="M288 217L289 218L288 217z"/>
<path style="fill:#fadfa2; stroke:none;" d="M345 217L346 218L345 217z"/>
<path style="fill:#f6c864; stroke:none;" d="M489 217L490 218L489 217z"/>
<path style="fill:#fadfa2; stroke:none;" d="M286 218L287 219L286 218z"/>
<path style="fill:#f6c864; stroke:none;" d="M343 218L344 219L343 218M454 218L455 219L454 218z"/>
<path style="fill:#fadfa2; stroke:none;" d="M489 218L490 219L489 218z"/>
<path style="fill:#f6c864; stroke:none;" d="M285 219L286 220L285 219z"/>
<path style="fill:#fadfa2; stroke:none;" d="M342 219L343 220L342 219z"/>
<path style="fill:#f3b62f; stroke:none;" d="M454 219L455 220L454 219z"/>
<path style="fill:#f6c864; stroke:none;" d="M284 220L285 221L284 220M340 220L341 221L340 220z"/>
<path style="fill:#f3b62f; stroke:none;" d="M488 220L489 221L488 220z"/>
<path style="fill:#f6c864; stroke:none;" d="M283 221L284 222L283 221z"/>
<path style="fill:#fadfa2; stroke:none;" d="M339 221L340 222L339 221M453 221L454 222L453 221z"/>
<path style="fill:#f6c864; stroke:none;" d="M488 221L489 222L488 221z"/>
<path style="fill:#f3b62f; stroke:none;" d="M282 222L283 223L282 222z"/>
<path style="fill:#f6c864; stroke:none;" d="M337 222L338 223L337 222M453 222L454 223L453 222z"/>
<path style="fill:#fadfa2; stroke:none;" d="M488 222L489 223L488 222M280 223L281 224L280 223z"/>
<path style="fill:#f3b62f; stroke:none;" d="M335 223L336 224L335 223z"/>
<path style="fill:#fadfa2; stroke:none;" d="M336 223L337 224L336 223M279 224L280 225L279 224z"/>
<path style="fill:#f6c864; stroke:none;" d="M334 224L335 225L334 224z"/>
<path style="fill:#fadfa2; stroke:none;" d="M452 224L453 225L452 224z"/>
<path style="fill:#f3b62f; stroke:none;" d="M487 224L488 225L487 224z"/>
<path style="fill:#fadfa2; stroke:none;" d="M278 225L279 226L278 225z"/>
<path style="fill:#f3b62f; stroke:none;" d="M332 225L333 226L332 225z"/>
<path style="fill:#fadfa2; stroke:none;" d="M333 225L334 226L333 225z"/>
<path style="fill:#f6c864; stroke:none;" d="M452 225L453 226L452 225M487 225L488 226L487 225z"/>
<path style="fill:#fadfa2; stroke:none;" d="M277 226L278 227L277 226z"/>
<path style="fill:#f6c864; stroke:none;" d="M331 226L332 227L331 226z"/>
<path style="fill:#fadfa2; stroke:none;" d="M487 226L488 227L487 226z"/>
<path style="fill:#f6c864; stroke:none;" d="M276 227L277 228L276 227z"/>
<path style="fill:#f3b62f; stroke:none;" d="M329 227L330 228L329 227z"/>
<path style="fill:#fadfa2; stroke:none;" d="M330 227L331 228L330 227M451 227L452 228L451 227z"/>
<path style="fill:#f6c864; stroke:none;" d="M275 228L276 229L275 228M328 228L329 229L328 228M451 228L452 229L451 228z"/>
<path style="fill:#f3b62f; stroke:none;" d="M486 228L487 229L486 228M274 229L275 230L274 229M326 229L327 230L326 229z"/>
<path style="fill:#fadfa2; stroke:none;" d="M327 229L328 230L327 229z"/>
<path style="fill:#f6c864; stroke:none;" d="M486 229L487 230L486 229M325 230L326 231L325 230z"/>
<path style="fill:#fadfa2; stroke:none;" d="M450 230L451 231L450 230M486 230L487 231L486 230z"/>
<path style="fill:#f3b62f; stroke:none;" d="M323 231L324 232L323 231z"/>
<path style="fill:#fadfa2; stroke:none;" d="M324 231L325 232L324 231z"/>
<path style="fill:#f3b62f; stroke:none;" d="M450 231L451 232L450 231M485 231L486 232L485 231z"/>
<path style="fill:#fadfa2; stroke:none;" d="M270 232L271 233L270 232z"/>
<path style="fill:#f6c864; stroke:none;" d="M322 232L323 233L322 232M485 232L486 233L485 232z"/>
<path style="fill:#fadfa2; stroke:none;" d="M269 233L270 234L269 233z"/>
<path style="fill:#f6c864; stroke:none;" d="M321 233L322 234L321 233z"/>
<path style="fill:#fadfa2; stroke:none;" d="M449 233L450 234L449 233M485 233L486 234L485 233z"/>
<path style="fill:#f6c864; stroke:none;" d="M268 234L269 235L268 234z"/>
<path style="fill:#fadfa2; stroke:none;" d="M320 234L321 235L320 234z"/>
<path style="fill:#f3b62f; stroke:none;" d="M449 234L450 235L449 234M484 234L485 235L484 234z"/>
<path style="fill:#f6c864; stroke:none;" d="M267 235L268 236L267 235z"/>
<path style="fill:#fadfa2; stroke:none;" d="M319 235L320 236L319 235z"/>
<path style="fill:#f6c864; stroke:none;" d="M484 235L485 236L484 235M266 236L267 237L266 236z"/>
<path style="fill:#fadfa2; stroke:none;" d="M318 236L319 237L318 236M448 236L449 237L448 236M484 236L485 237L484 236z"/>
<path style="fill:#f6c864; stroke:none;" d="M265 237L266 238L265 237z"/>
<path style="fill:#f3b62f; stroke:none;" d="M316 237L317 238L316 237M448 237L449 238L448 237M483 237L484 238L483 237z"/>
<path style="fill:#f6c864; stroke:none;" d="M264 238L265 239L264 238z"/>
<path style="fill:#f3b62f; stroke:none;" d="M315 238L316 239L315 238z"/>
<path style="fill:#f6c864; stroke:none;" d="M483 238L484 239L483 238M263 239L264 240L263 239z"/>
<path style="fill:#f3b62f; stroke:none;" d="M314 239L315 240L314 239z"/>
<path style="fill:#fadfa2; stroke:none;" d="M447 239L448 240L447 239M483 239L484 240L483 239z"/>
<path style="fill:#f6c864; stroke:none;" d="M262 240L263 241L262 240M313 240L314 241L313 240z"/>
<path style="fill:#f3b62f; stroke:none;" d="M447 240L448 241L447 240z"/>
<path style="fill:#f6c864; stroke:none;" d="M261 241L262 242L261 241z"/>
<path style="fill:#fadfa2; stroke:none;" d="M312 241L313 242L312 241z"/>
<path style="fill:#f6c864; stroke:none;" d="M482 241L483 242L482 241M260 242L261 243L260 242z"/>
<path style="fill:#fadfa2; stroke:none;" d="M311 242L312 243L311 242z"/>
<path style="fill:#f6c864; stroke:none;" d="M446 242L447 243L446 242z"/>
<path style="fill:#fadfa2; stroke:none;" d="M482 242L483 243L482 242z"/>
<path style="fill:#f6c864; stroke:none;" d="M259 243L260 244L259 243z"/>
<path style="fill:#fadfa2; stroke:none;" d="M310 243L311 244L310 243z"/>
<path style="fill:#f3b62f; stroke:none;" d="M446 243L447 244L446 243z"/>
<path style="fill:#f6c864; stroke:none;" d="M258 244L259 245L258 244z"/>
<path style="fill:#f3b62f; stroke:none;" d="M308 244L309 245L308 244z"/>
<path style="fill:#f6c864; stroke:none;" d="M481 244L482 245L481 244M257 245L258 246L257 245z"/>
<path style="fill:#f3b62f; stroke:none;" d="M307 245L308 246L307 245z"/>
<path style="fill:#f6c864; stroke:none;" d="M445 245L446 246L445 245z"/>
<path style="fill:#fadfa2; stroke:none;" d="M481 245L482 246L481 245z"/>
<path style="fill:#f6c864; stroke:none;" d="M256 246L257 247L256 246z"/>
<path style="fill:#f3b62f; stroke:none;" d="M306 246L307 247L306 246M445 246L446 247L445 246M480 246L481 247L480 246z"/>
<path style="fill:#f6c864; stroke:none;" d="M255 247L256 248L255 247M305 247L306 248L305 247z"/>
<path style="fill:#fadfa2; stroke:none;" d="M444 247L445 248L444 247z"/>
<path style="fill:#f6c864; stroke:none;" d="M480 247L481 248L480 247M254 248L255 249L254 248M304 248L305 249L304 248M444 248L445 249L444 248z"/>
<path style="fill:#fadfa2; stroke:none;" d="M480 248L481 249L480 248z"/>
<path style="fill:#f6c864; stroke:none;" d="M253 249L254 250L253 249z"/>
<path style="fill:#fadfa2; stroke:none;" d="M303 249L304 250L303 249z"/>
<path style="fill:#f3b62f; stroke:none;" d="M444 249L445 250L444 249M479 249L480 250L479 249z"/>
<path style="fill:#f6c864; stroke:none;" d="M252 250L253 251L252 250z"/>
<path style="fill:#fadfa2; stroke:none;" d="M302 250L303 251L302 250M443 250L444 251L443 250z"/>
<path style="fill:#f6c864; stroke:none;" d="M479 250L480 251L479 250z"/>
<path style="fill:#fadfa2; stroke:none;" d="M251 251L252 252L251 251z"/>
<path style="fill:#f3b62f; stroke:none;" d="M300 251L301 252L300 251z"/>
<path style="fill:#fadfa2; stroke:none;" d="M366.667 251.333L367.333 251.667L366.667 251.333z"/>
<path style="fill:#f6c864; stroke:none;" d="M368 251L369 252L368 251z"/>
<path style="fill:#fadfa2; stroke:none;" d="M369.667 251.333L370.333 251.667L369.667 251.333z"/>
<path style="fill:#f6c864; stroke:none;" d="M443 251L444 252L443 251z"/>
<path style="fill:#fadfa2; stroke:none;" d="M479 251L480 252L479 251M250 252L251 253L250 252z"/>
<path style="fill:#f3b62f; stroke:none;" d="M299 252L300 253L299 252z"/>
<path style="fill:#fadfa2; stroke:none;" d="M362 252L363 253L362 252z"/>
<path style="fill:#f6c864; stroke:none;" d="M363 252L364 253L363 252z"/>
<path style="fill:#f3b62f; stroke:none;" d="M364 252L365 253L364 252z"/>
<path style="fill:#f1a501; stroke:none;" d="M365 252.529C342.753 257.635 349.778 292.498 372 287.47C394.583 282.36 387.488 247.369 365 252.529z"/>
<path style="fill:#f6c864; stroke:none;" d="M373 252L374 253L373 252z"/>
<path style="fill:#fadfa2; stroke:none;" d="M374 252L375 253L374 252z"/>
<path style="fill:#f3b62f; stroke:none;" d="M478 252L479 253L478 252z"/>
<path style="fill:#fadfa2; stroke:none;" d="M249 253L250 254L249 253z"/>
<path style="fill:#f3b62f; stroke:none;" d="M298 253L299 254L298 253z"/>
<path style="fill:#fadfa2; stroke:none;" d="M360 253L361 254L360 253z"/>
<path style="fill:#f3b62f; stroke:none;" d="M361 253L362 254L361 253M375 253L376 254L375 253z"/>
<path style="fill:#fadfa2; stroke:none;" d="M376 253L377 254L376 253z"/>
<path style="fill:#f6c864; stroke:none;" d="M442 253L443 254L442 253z"/>
<path style="fill:#fadfa2; stroke:none;" d="M478 253L479 254L478 253z"/>
<path style="fill:#f6c864; stroke:none;" d="M297 254L298 255L297 254z"/>
<path style="fill:#fadfa2; stroke:none;" d="M358 254L359 255L358 254z"/>
<path style="fill:#f3b62f; stroke:none;" d="M359 254L360 255L359 254M377 254L378 255L377 254z"/>
<path style="fill:#fadfa2; stroke:none;" d="M378 254L379 255L378 254z"/>
<path style="fill:#f6c864; stroke:none;" d="M296 255L297 256L296 255z"/>
<path style="fill:#fadfa2; stroke:none;" d="M357 255L358 256L357 255z"/>
<path style="fill:#f6c864; stroke:none;" d="M379 255L380 256L379 255z"/>
<path style="fill:#fadfa2; stroke:none;" d="M441 255L442 256L441 255z"/>
<path style="fill:#f6c864; stroke:none;" d="M477 255L478 256L477 255z"/>
<path style="fill:#f3b62f; stroke:none;" d="M247 256L248 257L247 256z"/>
<path style="fill:#fadfa2; stroke:none;" d="M295 256L296 257L295 256z"/>
<path style="fill:#f6c864; stroke:none;" d="M356 256L357 257L356 256z"/>
<path style="fill:#f3b62f; stroke:none;" d="M380 256L381 257L380 256z"/>
<path style="fill:#fadfa2; stroke:none;" d="M477 256L478 257L477 256z"/>
<path style="fill:#f3b62f; stroke:none;" d="M246 257L247 258L246 257z"/>
<path style="fill:#fadfa2; stroke:none;" d="M294 257L295 258L294 257z"/>
<path style="fill:#f3b62f; stroke:none;" d="M355 257L356 258L355 257z"/>
<path style="fill:#fadfa2; stroke:none;" d="M440 257L441 258L440 257z"/>
<path style="fill:#f3b62f; stroke:none;" d="M245 258L246 259L245 258M292 258L293 259L292 258z"/>
<path style="fill:#f6c864; stroke:none;" d="M354 258L355 259L354 258M382 258L383 259L382 258M476 258L477 259L476 258M244 259L245 260L244 259z"/>
<path style="fill:#f3b62f; stroke:none;" d="M291 259L292 260L291 259z"/>
<path style="fill:#f6c864; stroke:none;" d="M353 259L354 260L353 259M383 259L384 260L383 259z"/>
<path style="fill:#fadfa2; stroke:none;" d="M439 259L440 260L439 259M476 259L477 260L476 259z"/>
<path style="fill:#f6c864; stroke:none;" d="M243 260L244 261L243 260z"/>
<path style="fill:#f3b62f; stroke:none;" d="M290 260L291 261L290 260z"/>
<path style="fill:#fadfa2; stroke:none;" d="M384 260L385 261L384 260z"/>
<path style="fill:#f6c864; stroke:none;" d="M475 260L476 261L475 260M242 261L243 262L242 261M352 261L353 262L352 261M384 261L385 262L384 261z"/>
<path style="fill:#fadfa2; stroke:none;" d="M438 261L439 262L438 261M475 261L476 262L475 261M241 262L242 263L241 262M385 262L386 263L385 262z"/>
<path style="fill:#f3b62f; stroke:none;" d="M438 262L439 263L438 262M474 262L475 263L474 262z"/>
<path style="fill:#fadfa2; stroke:none;" d="M240 263L241 264L240 263M288 263L289 264L288 263M351 263L352 264L351 263z"/>
<path style="fill:#f6c864; stroke:none;" d="M385 263L386 264L385 263z"/>
<path style="fill:#fadfa2; stroke:none;" d="M437 263L438 264L437 263M474 263L475 264L474 263M239 264L240 265L239 264M287 264L288 265L287 264z"/>
<path style="fill:#f3b62f; stroke:none;" d="M351 264L352 265L351 264M437 264L438 265L437 264M473 264L474 265L473 264M239 265L240 266L239 265z"/>
<path style="fill:#fadfa2; stroke:none;" d="M286 265L287 266L286 265M350 265L351 266L350 265M386 265L387 266L386 265M436 265L437 266L436 265z"/>
<path style="fill:#f6c864; stroke:none;" d="M473 265L474 266L473 265z"/>
<path style="fill:#f3b62f; stroke:none;" d="M238 266L239 267L238 266z"/>
<path style="fill:#fadfa2; stroke:none;" d="M285 266L286 267L285 266z"/>
<path style="fill:#f6c864; stroke:none;" d="M350 266L350 269L351 269L350 266M386.333 266.667L386.667 267.333L386.333 266.667z"/>
<path style="fill:#f3b62f; stroke:none;" d="M436 266L437 267L436 266z"/>
<path style="fill:#fadfa2; stroke:none;" d="M473 266L474 267L473 266z"/>
<path style="fill:#f6c864; stroke:none;" d="M237 267L238 268L237 267z"/>
<path style="fill:#fadfa2; stroke:none;" d="M284 267L285 268L284 267M435 267L436 268L435 267z"/>
<path style="fill:#f6c864; stroke:none;" d="M472 267L473 268L472 267M236 268L237 269L236 268z"/>
<path style="fill:#fadfa2; stroke:none;" d="M283 268L284 269L283 268z"/>
<path style="fill:#f3b62f; stroke:none;" d="M386 268L387 269L386 268M435 268L436 269L435 268z"/>
<path style="fill:#fadfa2; stroke:none;" d="M472 268L473 269L472 268z"/>
<path style="fill:#f6c864; stroke:none;" d="M235 269L236 270L235 269z"/>
<path style="fill:#fadfa2; stroke:none;" d="M282 269L283 270L282 269z"/>
<path style="fill:#f3b62f; stroke:none;" d="M350.333 269.667L350.667 270.333L350.333 269.667z"/>
<path style="fill:#fadfa2; stroke:none;" d="M434 269L435 270L434 269z"/>
<path style="fill:#f3b62f; stroke:none;" d="M471 269L472 270L471 269M186 270L187 271L186 270z"/>
<path style="fill:#fadfa2; stroke:none;" d="M281 270L282 271L281 270z"/>
<path style="fill:#f3b62f; stroke:none;" d="M434 270L435 271L434 270z"/>
<path style="fill:#fadfa2; stroke:none;" d="M471 270L472 271L471 270z"/>
<path style="fill:#f3b62f; stroke:none;" d="M185 271L186 272L185 271z"/>
<path style="fill:#f6c864; stroke:none;" d="M280 271L281 272L280 271M350 271L350 274L351 274L350 271z"/>
<path style="fill:#f3b62f; stroke:none;" d="M386 271L387 272L386 271z"/>
<path style="fill:#fadfa2; stroke:none;" d="M433 271L434 272L433 271z"/>
<path style="fill:#f3b62f; stroke:none;" d="M470 271L471 272L470 271M184 272L185 273L184 272z"/>
<path style="fill:#f6c864; stroke:none;" d="M279 272L280 273L279 272M386.333 272.667L386.667 273.333L386.333 272.667z"/>
<path style="fill:#f3b62f; stroke:none;" d="M433 272L434 273L433 272z"/>
<path style="fill:#f6c864; stroke:none;" d="M470 272L471 273L470 272z"/>
<path style="fill:#f3b62f; stroke:none;" d="M183 273L184 274L183 273z"/>
<path style="fill:#f6c864; stroke:none;" d="M278 273L279 274L278 273z"/>
<path style="fill:#fadfa2; stroke:none;" d="M432 273L433 274L432 273z"/>
<path style="fill:#f3b62f; stroke:none;" d="M182 274L183 275L182 274z"/>
<path style="fill:#f6c864; stroke:none;" d="M277 274L278 275L277 274z"/>
<path style="fill:#fadfa2; stroke:none;" d="M386 274L387 275L386 274z"/>
<path style="fill:#f3b62f; stroke:none;" d="M432 274L433 275L432 274z"/>
<path style="fill:#f6c864; stroke:none;" d="M469 274L470 275L469 274M181 275L182 276L181 275M276 275L277 276L276 275z"/>
<path style="fill:#f3b62f; stroke:none;" d="M351 275L352 276L351 275M385 275L386 276L385 275z"/>
<path style="fill:#fadfa2; stroke:none;" d="M431 275L432 276L431 275z"/>
<path style="fill:#f6c864; stroke:none;" d="M180 276L181 277L180 276z"/>
<path style="fill:#f3b62f; stroke:none;" d="M275 276L276 277L275 276z"/>
<path style="fill:#fadfa2; stroke:none;" d="M351 276L352 277L351 276z"/>
<path style="fill:#f6c864; stroke:none;" d="M385 276L386 277L385 276z"/>
<path style="fill:#f3b62f; stroke:none;" d="M431 276L432 277L431 276z"/>
<path style="fill:#f6c864; stroke:none;" d="M468 276L469 277L468 276M179 277L180 278L179 277z"/>
<path style="fill:#f3b62f; stroke:none;" d="M274 277L275 278L274 277M352 277L353 278L352 277z"/>
<path style="fill:#fadfa2; stroke:none;" d="M385 277L386 278L385 277M430 277L431 278L430 277z"/>
<path style="fill:#f6c864; stroke:none;" d="M178 278L179 279L178 278z"/>
<path style="fill:#f3b62f; stroke:none;" d="M273 278L274 279L273 278z"/>
<path style="fill:#f6c864; stroke:none;" d="M352 278L353 279L352 278M384 278L385 279L384 278z"/>
<path style="fill:#f3b62f; stroke:none;" d="M430 278L431 279L430 278z"/>
<path style="fill:#f6c864; stroke:none;" d="M467 278L468 279L467 278M177 279L178 280L177 279z"/>
<path style="fill:#f3b62f; stroke:none;" d="M272 279L273 280L272 279M353 279L354 280L353 279z"/>
<path style="fill:#fadfa2; stroke:none;" d="M429 279L430 280L429 279M467 279L468 280L467 279z"/>
<path style="fill:#f6c864; stroke:none;" d="M176 280L177 281L176 280z"/>
<path style="fill:#f3b62f; stroke:none;" d="M271 280L272 281L271 280z"/>
<path style="fill:#fadfa2; stroke:none;" d="M353 280L354 281L353 280M383 280L384 281L383 280z"/>
<path style="fill:#f3b62f; stroke:none;" d="M429 280L430 281L429 280z"/>
<path style="fill:#f6c864; stroke:none;" d="M466 280L467 281L466 280M175 281L176 282L175 281z"/>
<path style="fill:#f3b62f; stroke:none;" d="M270 281L271 282L270 281z"/>
<path style="fill:#f6c864; stroke:none;" d="M354 281L355 282L354 281M382 281L383 282L382 281z"/>
<path style="fill:#fadfa2; stroke:none;" d="M428 281L429 282L428 281M466 281L467 282L466 281z"/>
<path style="fill:#f6c864; stroke:none;" d="M174 282L175 283L174 282z"/>
<path style="fill:#f3b62f; stroke:none;" d="M269 282L270 283L269 282M381 282L382 283L381 282M428 282L429 283L428 282z"/>
<path style="fill:#f6c864; stroke:none;" d="M465 282L466 283L465 282z"/>
<path style="fill:#fadfa2; stroke:none;" d="M173 283L174 284L173 283z"/>
<path style="fill:#f3b62f; stroke:none;" d="M268 283L269 284L268 283z"/>
<path style="fill:#f6c864; stroke:none;" d="M356 283L357 284L356 283z"/>
<path style="fill:#f3b62f; stroke:none;" d="M380 283L381 284L380 283z"/>
<path style="fill:#fadfa2; stroke:none;" d="M427 283L428 284L427 283M465 283L466 284L465 283M172 284L173 285L172 284M357 284L358 285L357 284z"/>
<path style="fill:#f6c864; stroke:none;" d="M379 284L380 285L379 284z"/>
<path style="fill:#f3b62f; stroke:none;" d="M427 284L428 285L427 284z"/>
<path style="fill:#f6c864; stroke:none;" d="M464 284L465 285L464 284z"/>
<path style="fill:#fadfa2; stroke:none;" d="M171 285L172 286L171 285M267 285L268 286L267 285M358 285L359 286L358 285z"/>
<path style="fill:#f6c864; stroke:none;" d="M359 285L360 286L359 285z"/>
<path style="fill:#f3b62f; stroke:none;" d="M377 285L378 286L377 285z"/>
<path style="fill:#fadfa2; stroke:none;" d="M378 285L379 286L378 285M426 285L427 286L426 285M464 285L465 286L464 285M170 286L171 287L170 286M266 286L267 287L266 286M360 286L361 287L360 286z"/>
<path style="fill:#f6c864; stroke:none;" d="M361 286L362 287L361 286M375 286L376 287L375 286z"/>
<path style="fill:#fadfa2; stroke:none;" d="M376 286L377 287L376 286z"/>
<path style="fill:#f3b62f; stroke:none;" d="M426 286L427 287L426 286z"/>
<path style="fill:#f6c864; stroke:none;" d="M463 286L464 287L463 286z"/>
<path style="fill:#fadfa2; stroke:none;" d="M169 287L170 288L169 287z"/>
<path style="fill:#f6c864; stroke:none;" d="M265 287L266 288L265 287M363 287L364 288L363 287z"/>
<path style="fill:#f3b62f; stroke:none;" d="M364 287L365 288L364 287M372 287L373 288L372 287z"/>
<path style="fill:#fadfa2; stroke:none;" d="M373 287L374 288L373 287z"/>
<path style="fill:#f6c864; stroke:none;" d="M425 287L426 288L425 287z"/>
<path style="fill:#fadfa2; stroke:none;" d="M463 287L464 288L463 287M168 288L169 289L168 288z"/>
<path style="fill:#f3b62f; stroke:none;" d="M264 288L265 289L264 288z"/>
<path style="fill:#fadfa2; stroke:none;" d="M368 288L369 289L368 288M424 288L425 289L424 288z"/>
<path style="fill:#f6c864; stroke:none;" d="M462 288L463 289L462 288z"/>
<path style="fill:#fadfa2; stroke:none;" d="M167 289L168 290L167 289M264 289L265 290L264 289M462 289L463 290L462 289M166 290L167 291L166 290M263 290L264 291L263 290z"/>
<path style="fill:#f6c864; stroke:none;" d="M423 290L424 291L423 290M461 290L462 291L461 290z"/>
<path style="fill:#fadfa2; stroke:none;" d="M165 291L166 292L165 291z"/>
<path style="fill:#f6c864; stroke:none;" d="M262 291L263 292L262 291z"/>
<path style="fill:#fadfa2; stroke:none;" d="M422 291L423 292L422 291z"/>
<path style="fill:#f3b62f; stroke:none;" d="M460 291L461 292L460 291z"/>
<path style="fill:#fadfa2; stroke:none;" d="M164 292L165 293L164 292z"/>
<path style="fill:#f3b62f; stroke:none;" d="M261 292L262 293L261 292z"/>
<path style="fill:#fadfa2; stroke:none;" d="M460 292L461 293L460 292M163 293L164 294L163 293M261 293L262 294L261 293z"/>
<path style="fill:#f3b62f; stroke:none;" d="M421 293L422 294L421 293M459 293L460 294L459 293z"/>
<path style="fill:#fadfa2; stroke:none;" d="M162 294L163 295L162 294M260 294L261 295L260 294M420 294L421 295L420 294M459 294L460 295L459 294z"/>
<path style="fill:#f3b62f; stroke:none;" d="M215 295L216 296L215 295z"/>
<path style="fill:#fadfa2; stroke:none;" d="M216 295L218 297L218 295L216 295z"/>
<path style="fill:#f6c864; stroke:none;" d="M259 295L260 296L259 295z"/>
<path style="fill:#f3b62f; stroke:none;" d="M458 295L459 296L458 295M210 296L211 297L210 296z"/>
<path style="fill:#fadfa2; stroke:none;" d="M211.667 296.333L212.333 296.667L211.667 296.333z"/>
<path style="fill:#ffffff; stroke:none;" d="M174 330C179.49 329.985 189.95 330.747 194.7 327.972C202.778 323.253 213.686 304.616 217 296C197.808 297.527 184.622 314.907 174 330z"/>
<path style="fill:#f3b62f; stroke:none;" d="M258 296L259 297L258 296M419 296L420 297L419 296z"/>
<path style="fill:#fadfa2; stroke:none;" d="M458 296L459 297L458 296z"/>
<path style="fill:#f3b62f; stroke:none;" d="M205 297L206 298L205 297z"/>
<path style="fill:#fadfa2; stroke:none;" d="M206.667 297.333L207.333 297.667L206.667 297.333z"/>
<path style="fill:#f6c864; stroke:none;" d="M418 297L419 298L418 297M457 297L458 298L457 297z"/>
<path style="fill:#f3b62f; stroke:none;" d="M201 298L202 299L201 298M216 298L217 299L216 298z"/>
<path style="fill:#fadfa2; stroke:none;" d="M257 298L258 299L257 298M417 298L418 299L417 298M457 298L458 299L457 298z"/>
<path style="fill:#f3b62f; stroke:none;" d="M158 299L159 300L158 299z"/>
<path style="fill:#f6c864; stroke:none;" d="M215 299L216 300L215 299M256 299L257 300L256 299z"/>
<path style="fill:#f3b62f; stroke:none;" d="M417 299L418 300L417 299z"/>
<path style="fill:#f6c864; stroke:none;" d="M456 299L457 300L456 299z"/>
<path style="fill:#f3b62f; stroke:none;" d="M157 300L158 301L157 300M255 300L256 301L255 300z"/>
<path style="fill:#f6c864; stroke:none;" d="M416 300L417 301L416 300z"/>
<path style="fill:#f3b62f; stroke:none;" d="M455 300L456 301L455 300M156 301L157 302L156 301z"/>
<path style="fill:#fadfa2; stroke:none;" d="M415 301L416 302L415 301M455 301L456 302L455 301z"/>
<path style="fill:#f3b62f; stroke:none;" d="M155 302L156 303L155 302z"/>
<path style="fill:#fadfa2; stroke:none;" d="M198 302L199 303L198 302z"/>
<path style="fill:#f6c864; stroke:none;" d="M213 302L214 303L213 302z"/>
<path style="fill:#fadfa2; stroke:none;" d="M254 302L255 303L254 302z"/>
<path style="fill:#f3b62f; stroke:none;" d="M454 302L455 303L454 302M154 303L155 304L154 303z"/>
<path style="fill:#fadfa2; stroke:none;" d="M197 303L198 304L197 303M212 303L213 304L212 303z"/>
<path style="fill:#f6c864; stroke:none;" d="M253 303L254 304L253 303M414 303L415 304L414 303z"/>
<path style="fill:#fadfa2; stroke:none;" d="M454 303L455 304L454 303z"/>
<path style="fill:#f3b62f; stroke:none;" d="M153 304L154 305L153 304z"/>
<path style="fill:#f6c864; stroke:none;" d="M196 304L197 305L196 304z"/>
<path style="fill:#f3b62f; stroke:none;" d="M252 304L253 305L252 304z"/>
<path style="fill:#fadfa2; stroke:none;" d="M413 304L414 305L413 304z"/>
<path style="fill:#f6c864; stroke:none;" d="M453 304L454 305L453 304M152 305L153 306L152 305M195 305L196 306L195 305z"/>
<path style="fill:#f3b62f; stroke:none;" d="M211 305L212 306L211 305z"/>
<path style="fill:#f6c864; stroke:none;" d="M151 306L152 307L151 306z"/>
<path style="fill:#f3b62f; stroke:none;" d="M194 306L195 307L194 306z"/>
<path style="fill:#fadfa2; stroke:none;" d="M210 306L211 307L210 306M251 306L252 307L251 306M311.667 306.333L312.333 306.667L311.667 306.333z"/>
<path style="fill:#f6c864; stroke:none;" d="M313 306L314 307L313 306z"/>
<path style="fill:#fadfa2; stroke:none;" d="M314.667 306.333L315.333 306.667L314.667 306.333z"/>
<path style="fill:#f3b62f; stroke:none;" d="M412 306L413 307L412 306z"/>
<path style="fill:#fadfa2; stroke:none;" d="M452 306L453 307L452 306z"/>
<path style="fill:#f6c864; stroke:none;" d="M150 307L151 308L150 307z"/>
<path style="fill:#f3b62f; stroke:none;" d="M193 307L194 308L193 307z"/>
<path style="fill:#f6c864; stroke:none;" d="M250 307L251 308L250 307z"/>
<path style="fill:#fadfa2; stroke:none;" d="M307 307L308 308L307 307z"/>
<path style="fill:#f6c864; stroke:none;" d="M308 307L309 308L308 307z"/>
<path style="fill:#f3b62f; stroke:none;" d="M309 307L310 308L309 307z"/>
<path style="fill:#f1a501; stroke:none;" d="M310 307.529C287.787 312.619 294.535 347.385 317 342.609C339.574 337.81 332.494 302.376 310 307.529z"/>
<path style="fill:#f6c864; stroke:none;" d="M318 307L319 308L318 307z"/>
<path style="fill:#fadfa2; stroke:none;" d="M319 307L320 308L319 307z"/>
<path style="fill:#f6c864; stroke:none;" d="M411 307L412 308L411 307z"/>
<path style="fill:#f3b62f; stroke:none;" d="M451 307L452 308L451 307z"/>
<path style="fill:#f6c864; stroke:none;" d="M149 308L150 309L149 308z"/>
<path style="fill:#f3b62f; stroke:none;" d="M209 308L210 309L209 308M249 308L250 309L249 308z"/>
<path style="fill:#fadfa2; stroke:none;" d="M305 308L306 309L305 308z"/>
<path style="fill:#f3b62f; stroke:none;" d="M306 308L307 309L306 308M320 308L321 309L320 308z"/>
<path style="fill:#fadfa2; stroke:none;" d="M321 308L322 309L321 308M410 308L411 309L410 308M451 308L452 309L451 308z"/>
<path style="fill:#f6c864; stroke:none;" d="M148 309L149 310L148 309z"/>
<path style="fill:#fadfa2; stroke:none;" d="M208 309L209 310L208 309M303 309L304 310L303 309z"/>
<path style="fill:#f3b62f; stroke:none;" d="M304 309L305 310L304 309M322 309L323 310L322 309z"/>
<path style="fill:#fadfa2; stroke:none;" d="M323 309L324 310L323 309z"/>
<path style="fill:#f6c864; stroke:none;" d="M450 309L451 310L450 309M147 310L148 311L147 310z"/>
<path style="fill:#fadfa2; stroke:none;" d="M248 310L249 311L248 310z"/>
<path style="fill:#f6c864; stroke:none;" d="M302 310L303 311L302 310M324 310L325 311L324 310z"/>
<path style="fill:#f3b62f; stroke:none;" d="M409 310L410 311L409 310M449 310L450 311L449 310z"/>
<path style="fill:#f6c864; stroke:none;" d="M146 311L147 312L146 311z"/>
<path style="fill:#f3b62f; stroke:none;" d="M207 311L208 312L207 311z"/>
<path style="fill:#f6c864; stroke:none;" d="M247 311L248 312L247 311z"/>
<path style="fill:#f3b62f; stroke:none;" d="M301 311L302 312L301 311M325 311L326 312L325 311z"/>
<path style="fill:#f6c864; stroke:none;" d="M408 311L409 312L408 311z"/>
<path style="fill:#fadfa2; stroke:none;" d="M449 311L450 312L449 311z"/>
<path style="fill:#f6c864; stroke:none;" d="M145 312L146 313L145 312z"/>
<path style="fill:#fadfa2; stroke:none;" d="M189 312L190 313L189 312z"/>
<path style="fill:#f6c864; stroke:none;" d="M206 312L207 313L206 312z"/>
<path style="fill:#f3b62f; stroke:none;" d="M246 312L247 313L246 312z"/>
<path style="fill:#f6c864; stroke:none;" d="M407 312L408 313L407 312M448 312L449 313L448 312z"/>
<path style="fill:#fadfa2; stroke:none;" d="M144 313L145 314L144 313M188 313L189 314L188 313z"/>
<path style="fill:#f3b62f; stroke:none;" d="M299 313L300 314L299 313z"/>
<path style="fill:#f6c864; stroke:none;" d="M327 313L328 314L327 313z"/>
<path style="fill:#fadfa2; stroke:none;" d="M406 313L407 314L406 313M448 313L449 314L448 313M143 314L144 315L143 314z"/>
<path style="fill:#f6c864; stroke:none;" d="M187 314L188 315L187 314z"/>
<path style="fill:#fadfa2; stroke:none;" d="M245 314L246 315L245 314z"/>
<path style="fill:#f6c864; stroke:none;" d="M298 314L299 315L298 314M328 314L329 315L328 314M447 314L448 315L447 314z"/>
<path style="fill:#fadfa2; stroke:none;" d="M142 315L143 316L142 315z"/>
<path style="fill:#f6c864; stroke:none;" d="M186 315L187 316L186 315M204 315L205 316L204 315M244 315L245 316L244 315z"/>
<path style="fill:#fadfa2; stroke:none;" d="M297 315L298 316L297 315M329 315L330 316L329 315z"/>
<path style="fill:#f3b62f; stroke:none;" d="M405 315L406 316L405 315M446 315L447 316L446 315z"/>
<path style="fill:#fadfa2; stroke:none;" d="M141 316L142 317L141 316z"/>
<path style="fill:#f3b62f; stroke:none;" d="M185 316L186 317L185 316z"/>
<path style="fill:#fadfa2; stroke:none;" d="M203 316L204 317L203 316z"/>
<path style="fill:#f3b62f; stroke:none;" d="M243 316L244 317L243 316z"/>
<path style="fill:#f6c864; stroke:none;" d="M297 316L298 317L297 316M329 316L330 317L329 316M404 316L405 317L404 316z"/>
<path style="fill:#fadfa2; stroke:none;" d="M446 316L447 317L446 316M140 317L141 318L140 317z"/>
<path style="fill:#f3b62f; stroke:none;" d="M184 317L185 318L184 317z"/>
<path style="fill:#fadfa2; stroke:none;" d="M296 317L297 318L296 317M330 317L331 318L330 317z"/>
<path style="fill:#f6c864; stroke:none;" d="M403 317L404 318L403 317M445 317L446 318L445 317z"/>
<path style="fill:#fadfa2; stroke:none;" d="M139 318L140 319L139 318z"/>
<path style="fill:#f3b62f; stroke:none;" d="M202 318L203 319L202 318z"/>
<path style="fill:#fadfa2; stroke:none;" d="M242 318L243 319L242 318z"/>
<path style="fill:#f6c864; stroke:none;" d="M296 318L297 319L296 318M330 318L331 319L330 318z"/>
<path style="fill:#fadfa2; stroke:none;" d="M402 318L403 319L402 318M138 319L139 320L138 319M201 319L202 320L201 319z"/>
<path style="fill:#f6c864; stroke:none;" d="M241 319L242 320L241 319z"/>
<path style="fill:#f3b62f; stroke:none;" d="M296 319L297 320L296 319M330 319L331 320L330 319z"/>
<path style="fill:#fadfa2; stroke:none;" d="M444 319L445 320L444 319M137 320L138 321L137 320z"/>
<path style="fill:#f3b62f; stroke:none;" d="M240 320L241 321L240 320z"/>
<path style="fill:#fadfa2; stroke:none;" d="M295 320L296 321L295 320M331 320L332 321L331 320z"/>
<path style="fill:#f3b62f; stroke:none;" d="M401 320L402 321L401 320z"/>
<path style="fill:#f6c864; stroke:none;" d="M443 320L444 321L443 320z"/>
<path style="fill:#fadfa2; stroke:none;" d="M136 321L137 322L136 321M181 321L182 322L181 321z"/>
<path style="fill:#f3b62f; stroke:none;" d="M200 321L201 322L200 321z"/>
<path style="fill:#f6c864; stroke:none;" d="M295 321L295 324L296 324L295 321M331.333 321.667L331.667 322.333L331.333 321.667M400 321L401 322L400 321z"/>
<path style="fill:#f3b62f; stroke:none;" d="M442 321L443 322L442 321z"/>
<path style="fill:#fadfa2; stroke:none;" d="M180 322L181 323L180 322z"/>
<path style="fill:#f6c864; stroke:none;" d="M199 322L200 323L199 322z"/>
<path style="fill:#fadfa2; stroke:none;" d="M239 322L240 323L239 322z"/>
<path style="fill:#f6c864; stroke:none;" d="M399 322L400 323L399 322z"/>
<path style="fill:#fadfa2; stroke:none;" d="M442 322L443 323L442 322z"/>
<path style="fill:#f3b62f; stroke:none;" d="M135 323L136 324L135 323z"/>
<path style="fill:#fadfa2; stroke:none;" d="M179 323L180 324L179 323z"/>
<path style="fill:#f6c864; stroke:none;" d="M238 323L239 324L238 323z"/>
<path style="fill:#f3b62f; stroke:none;" d="M331 323L332 324L331 323z"/>
<path style="fill:#fadfa2; stroke:none;" d="M398 323L399 324L398 323z"/>
<path style="fill:#f6c864; stroke:none;" d="M441 323L442 324L441 323z"/>
<path style="fill:#fadfa2; stroke:none;" d="M134 324L135 325L134 324z"/>
<path style="fill:#f6c864; stroke:none;" d="M178 324L179 325L178 324z"/>
<path style="fill:#f3b62f; stroke:none;" d="M237 324L238 325L237 324M295.333 324.667L295.667 325.333L295.333 324.667M440 324L441 325L440 324M134 325L135 326L134 325M177 325L178 326L177 325M197 325L198 326L197 325M397 325L398 326L397 325z"/>
<path style="fill:#fadfa2; stroke:none;" d="M440 325L441 326L440 325z"/>
<path style="fill:#f6c864; stroke:none;" d="M133 326L134 327L133 326z"/>
<path style="fill:#f3b62f; stroke:none;" d="M176 326L177 327L176 326z"/>
<path style="fill:#fadfa2; stroke:none;" d="M196 326L197 327L196 326M236 326L237 327L236 326z"/>
<path style="fill:#f6c864; stroke:none;" d="M295 326L295 329L296 329L295 326z"/>
<path style="fill:#f3b62f; stroke:none;" d="M331 326L332 327L331 326z"/>
<path style="fill:#f6c864; stroke:none;" d="M396 326L397 327L396 326z"/>
<path style="fill:#fadfa2; stroke:none;" d="M439 326L440 327L439 326z"/>
<path style="fill:#f3b62f; stroke:none;" d="M175 327L176 328L175 327z"/>
<path style="fill:#f6c864; stroke:none;" d="M235 327L236 328L235 327M331.333 327.667L331.667 328.333L331.333 327.667M395 327L396 328L395 327M438 327L439 328L438 327M132 328L133 329L132 328z"/>
<path style="fill:#f3b62f; stroke:none;" d="M234 328L235 329L234 328z"/>
<path style="fill:#fadfa2; stroke:none;" d="M394 328L395 329L394 328z"/>
<path style="fill:#f3b62f; stroke:none;" d="M437 328L438 329L437 328z"/>
<path style="fill:#fadfa2; stroke:none;" d="M182 329L182 330L186 330L182 329z"/>
<path style="fill:#f6c864; stroke:none;" d="M186.667 329.333L187.333 329.667L186.667 329.333z"/>
<path style="fill:#f3b62f; stroke:none;" d="M188.667 329.333L189.333 329.667L188.667 329.333z"/>
<path style="fill:#fadfa2; stroke:none;" d="M295 329L296 330L295 329M331 329L332 330L331 329M437 329L438 330L437 329M131 330L132 331L131 330z"/>
<path style="fill:#f3b62f; stroke:none;" d="M174 330L175 331L174 330z"/>
<path style="fill:#fadfa2; stroke:none;" d="M233 330L234 331L233 330z"/>
<path style="fill:#f3b62f; stroke:none;" d="M296 330L297 331L296 330M330 330L331 331L330 330M393 330L394 331L393 330z"/>
<path style="fill:#f6c864; stroke:none;" d="M436 330L437 331L436 330M131 331L132 332L131 331M232 331L233 332L232 331M296 331L297 332L296 331M330 331L331 332L330 331M392 331L393 332L392 331z"/>
<path style="fill:#f3b62f; stroke:none;" d="M435 331L436 332L435 331M231 332L232 333L231 332z"/>
<path style="fill:#fadfa2; stroke:none;" d="M296 332L297 333L296 332M330 332L331 333L330 332z"/>
<path style="fill:#f6c864; stroke:none;" d="M391 332L392 333L391 332z"/>
<path style="fill:#fadfa2; stroke:none;" d="M435 332L436 333L435 332M130 333L130 337L131 337L130 333M231 333L232 334L231 333z"/>
<path style="fill:#f6c864; stroke:none;" d="M297 333L298 334L297 333M329 333L330 334L329 333z"/>
<path style="fill:#fadfa2; stroke:none;" d="M390 333L391 334L390 333M434 333L435 334L434 333z"/>
<path style="fill:#f6c864; stroke:none;" d="M230 334L231 335L230 334z"/>
<path style="fill:#fadfa2; stroke:none;" d="M297 334L298 335L297 334M329 334L330 335L329 334z"/>
<path style="fill:#f6c864; stroke:none;" d="M433 334L434 335L433 334M298 335L299 336L298 335M328 335L329 336L328 335z"/>
<path style="fill:#f3b62f; stroke:none;" d="M389 335L390 336L389 335M432 335L433 336L432 335z"/>
<path style="fill:#fadfa2; stroke:none;" d="M229 336L230 337L229 336z"/>
<path style="fill:#f3b62f; stroke:none;" d="M299 336L300 337L299 336z"/>
<path style="fill:#f6c864; stroke:none;" d="M327 336L328 337L327 336M388 336L389 337L388 336z"/>
<path style="fill:#fadfa2; stroke:none;" d="M432 336L433 337L432 336z"/>
<path style="fill:#f6c864; stroke:none;" d="M130 337L130 340L131 340L130 337z"/>
<path style="fill:#f3b62f; stroke:none;" d="M228 337L229 338L228 337z"/>
<path style="fill:#f6c864; stroke:none;" d="M387 337L388 338L387 337z"/>
<path style="fill:#fadfa2; stroke:none;" d="M431 337L432 338L431 337M228 338L229 339L228 338z"/>
<path style="fill:#f3b62f; stroke:none;" d="M301 338L302 339L301 338M325 338L326 339L325 338z"/>
<path style="fill:#fadfa2; stroke:none;" d="M386 338L387 339L386 338z"/>
<path style="fill:#f6c864; stroke:none;" d="M430 338L431 339L430 338M227 339L228 340L227 339M302 339L303 340L302 339M324 339L325 340L324 339z"/>
<path style="fill:#f3b62f; stroke:none;" d="M429 339L430 340L429 339z"/>
<path style="fill:#fadfa2; stroke:none;" d="M130.333 340.667L130.667 341.333L130.333 340.667M303 340L304 341L303 340z"/>
<path style="fill:#f3b62f; stroke:none;" d="M304 340L305 341L304 340M322 340L323 341L322 340z"/>
<path style="fill:#fadfa2; stroke:none;" d="M323 340L324 341L323 340z"/>
<path style="fill:#f3b62f; stroke:none;" d="M385 340L386 341L385 340M428 340L429 341L428 340z"/>
<path style="fill:#fadfa2; stroke:none;" d="M227 341L228 342L227 341M305 341L306 342L305 341z"/>
<path style="fill:#f3b62f; stroke:none;" d="M306 341L307 342L306 341M320 341L321 342L320 341z"/>
<path style="fill:#fadfa2; stroke:none;" d="M321 341L322 342L321 341z"/>
<path style="fill:#f6c864; stroke:none;" d="M384 341L385 342L384 341z"/>
<path style="fill:#fadfa2; stroke:none;" d="M428 341L429 342L428 341M228 342L229 343L228 342M307 342L308 343L307 342z"/>
<path style="fill:#f6c864; stroke:none;" d="M308 342L309 343L308 342z"/>
<path style="fill:#f3b62f; stroke:none;" d="M309 342L310 343L309 342z"/>
<path style="fill:#f6c864; stroke:none;" d="M318 342L319 343L318 342z"/>
<path style="fill:#fadfa2; stroke:none;" d="M319 342L320 343L319 342z"/>
<path style="fill:#f6c864; stroke:none;" d="M383 342L384 343L383 342z"/>
<path style="fill:#fadfa2; stroke:none;" d="M427 342L428 343L427 342M229 343L230 344L229 343M313 343L314 344L313 343M382 343L383 344L382 343z"/>
<path style="fill:#f6c864; stroke:none;" d="M426 343L427 344L426 343M131 344L132 345L131 344z"/>
<path style="fill:#fadfa2; stroke:none;" d="M230 344L231 345L230 344M381 344L382 345L381 344z"/>
<path style="fill:#f3b62f; stroke:none;" d="M425 344L426 345L425 344z"/>
<path style="fill:#fadfa2; stroke:none;" d="M131 345L132 346L131 345M231 345L232 346L231 345M380 345L381 346L380 345M425 345L426 346L425 345z"/>
<path style="fill:#f3b62f; stroke:none;" d="M132 346L133 347L132 346z"/>
<path style="fill:#fadfa2; stroke:none;" d="M232 346L233 347L232 346M379 346L380 347L379 346M424 346L425 347L424 346z"/>
<path style="fill:#f6c864; stroke:none;" d="M132 347L133 348L132 347z"/>
<path style="fill:#fadfa2; stroke:none;" d="M233 347L234 348L233 347z"/>
<path style="fill:#f6c864; stroke:none;" d="M378 347L379 348L378 347M423 347L424 348L423 347M234 348L235 349L234 348M377 348L378 349L377 348M422 348L423 349L422 348M133 349L134 350L133 349M235 349L236 350L235 349M376 349L377 350L376 349z"/>
<path style="fill:#f3b62f; stroke:none;" d="M421 349L422 350L421 349z"/>
<path style="fill:#f6c864; stroke:none;" d="M236 350L237 351L236 350z"/>
<path style="fill:#f3b62f; stroke:none;" d="M375 350L376 351L375 350z"/>
<path style="fill:#fadfa2; stroke:none;" d="M421 350L422 351L421 350M134 351L135 352L134 351z"/>
<path style="fill:#f6c864; stroke:none;" d="M237 351L238 352L237 351z"/>
<path style="fill:#f3b62f; stroke:none;" d="M374 351L375 352L374 351z"/>
<path style="fill:#fadfa2; stroke:none;" d="M420 351L421 352L420 351z"/>
<path style="fill:#f6c864; stroke:none;" d="M135 352L136 353L135 352M238 352L239 353L238 352z"/>
<path style="fill:#f3b62f; stroke:none;" d="M373 352L374 353L373 352z"/>
<path style="fill:#f6c864; stroke:none;" d="M419 352L420 353L419 352M136 353L137 354L136 353M239 353L240 354L239 353z"/>
<path style="fill:#f3b62f; stroke:none;" d="M372 353L373 354L372 353z"/>
<path style="fill:#f6c864; stroke:none;" d="M418 353L419 354L418 353z"/>
<path style="fill:#f3b62f; stroke:none;" d="M137 354L138 355L137 354z"/>
<path style="fill:#f6c864; stroke:none;" d="M240 354L241 355L240 354z"/>
<path style="fill:#fadfa2; stroke:none;" d="M370 354L371 355L370 354z"/>
<path style="fill:#f6c864; stroke:none;" d="M417 354L418 355L417 354M138 355L139 356L138 355M241 355L242 356L241 355z"/>
<path style="fill:#fadfa2; stroke:none;" d="M369 355L370 356L369 355z"/>
<path style="fill:#f3b62f; stroke:none;" d="M416 355L417 356L416 355z"/>
<path style="fill:#fadfa2; stroke:none;" d="M139 356L140 357L139 356z"/>
<path style="fill:#f6c864; stroke:none;" d="M242 356L243 357L242 356z"/>
<path style="fill:#fadfa2; stroke:none;" d="M368 356L369 357L368 356z"/>
<path style="fill:#f3b62f; stroke:none;" d="M415 356L416 357L415 356z"/>
<path style="fill:#fadfa2; stroke:none;" d="M140 357L141 358L140 357z"/>
<path style="fill:#f6c864; stroke:none;" d="M243 357L244 358L243 357z"/>
<path style="fill:#fadfa2; stroke:none;" d="M367 357L368 358L367 357z"/>
<path style="fill:#f6c864; stroke:none;" d="M142 358L143 359L142 358M244 358L245 359L244 358M366 358L367 359L366 358z"/>
<path style="fill:#fadfa2; stroke:none;" d="M414 358L415 359L414 358M143 359L144 360L143 359z"/>
<path style="fill:#f6c864; stroke:none;" d="M144 359L145 360L144 359M245 359L246 360L245 359M365 359L366 360L365 359z"/>
<path style="fill:#fadfa2; stroke:none;" d="M413 359L414 360L413 359M146 360L147 361L146 360z"/>
<path style="fill:#f3b62f; stroke:none;" d="M147 360L148 361L147 360z"/>
<path style="fill:#f6c864; stroke:none;" d="M246 360L247 361L246 360M364 360L365 361L364 360z"/>
<path style="fill:#fadfa2; stroke:none;" d="M412 360L413 361L412 360M149 361L150 362L149 361z"/>
<path style="fill:#f6c864; stroke:none;" d="M150 361L150 362L154 362L150 361z"/>
<path style="fill:#f3b62f; stroke:none;" d="M154 361L154 362L196 362C185.012 357.389 165.957 361 154 361z"/>
<path style="fill:#f6c864; stroke:none;" d="M247 361L248 362L247 361z"/>
<path style="fill:#f3b62f; stroke:none;" d="M363 361L364 362L363 361z"/>
<path style="fill:#fadfa2; stroke:none;" d="M411 361L412 362L411 361M196 362L197 363L196 362z"/>
<path style="fill:#f6c864; stroke:none;" d="M248 362L249 363L248 362z"/>
<path style="fill:#f3b62f; stroke:none;" d="M362 362L363 363L362 362z"/>
<path style="fill:#f6c864; stroke:none;" d="M410 362L411 363L410 362z"/>
<path style="fill:#fadfa2; stroke:none;" d="M197 363L198 364L197 363z"/>
<path style="fill:#f6c864; stroke:none;" d="M249 363L250 364L249 363z"/>
<path style="fill:#f3b62f; stroke:none;" d="M361 363L362 364L361 363M409 363L410 364L409 363M197 364L198 365L197 364z"/>
<path style="fill:#f6c864; stroke:none;" d="M250 364L251 365L250 364z"/>
<path style="fill:#f3b62f; stroke:none;" d="M408 364L409 365L408 364z"/>
<path style="fill:#f6c864; stroke:none;" d="M196 365L197 366L196 365M251 365L252 366L251 365z"/>
<path style="fill:#fadfa2; stroke:none;" d="M358 365L359 366L358 365M195 366L196 367L195 366z"/>
<path style="fill:#f6c864; stroke:none;" d="M252 366L253 367L252 366z"/>
<path style="fill:#fadfa2; stroke:none;" d="M357 366L358 367L357 366z"/>
<path style="fill:#f3b62f; stroke:none;" d="M195 367L196 368L195 367z"/>
<path style="fill:#f6c864; stroke:none;" d="M253 367L254 368L253 367z"/>
<path style="fill:#fadfa2; stroke:none;" d="M356 367L357 368L356 367M406 367L407 368L406 367z"/>
<path style="fill:#f6c864; stroke:none;" d="M194 368L195 369L194 368M254 368L255 369L254 368z"/>
<path style="fill:#fadfa2; stroke:none;" d="M355 368L356 369L355 368M405 368L406 369L405 368M193 369L194 370L193 369z"/>
<path style="fill:#f6c864; stroke:none;" d="M255 369L256 370L255 369M354 369L355 370L354 369M404 369L405 370L404 369z"/>
<path style="fill:#f3b62f; stroke:none;" d="M193 370L194 371L193 370z"/>
<path style="fill:#f6c864; stroke:none;" d="M256 370L257 371L256 370z"/>
<path style="fill:#f3b62f; stroke:none;" d="M353 370L354 371L353 370z"/>
<path style="fill:#f6c864; stroke:none;" d="M403 370L404 371L403 370M192 371L193 372L192 371M257 371L258 372L257 371z"/>
<path style="fill:#fadfa2; stroke:none;" d="M351 371L352 372L351 371z"/>
<path style="fill:#f3b62f; stroke:none;" d="M352 371L353 372L352 371z"/>
<path style="fill:#f6c864; stroke:none;" d="M402 371L403 372L402 371M258 372L259 373L258 372z"/>
<path style="fill:#fadfa2; stroke:none;" d="M350 372L351 373L350 372z"/>
<path style="fill:#f6c864; stroke:none;" d="M401 372L402 373L401 372M191 373L192 374L191 373M259 373L260 374L259 373M349 373L350 374L349 373M400 373L401 374L400 373M260 374L261 375L260 374z"/>
<path style="fill:#f3b62f; stroke:none;" d="M348 374L349 375L348 374z"/>
<path style="fill:#f6c864; stroke:none;" d="M399 374L400 375L399 374z"/>
<path style="fill:#fadfa2; stroke:none;" d="M190 375L191 376L190 375z"/>
<path style="fill:#f6c864; stroke:none;" d="M261 375L262 376L261 375z"/>
<path style="fill:#f3b62f; stroke:none;" d="M347 375L348 376L347 375z"/>
<path style="fill:#f6c864; stroke:none;" d="M398 375L399 376L398 375z"/>
<path style="fill:#f3b62f; stroke:none;" d="M190 376L191 377L190 376z"/>
<path style="fill:#f6c864; stroke:none;" d="M262 376L263 377L262 376z"/>
<path style="fill:#fadfa2; stroke:none;" d="M345 376L346 377L345 376z"/>
<path style="fill:#f6c864; stroke:none;" d="M397 376L398 377L397 376z"/>
<path style="fill:#fadfa2; stroke:none;" d="M189 377L190 378L189 377z"/>
<path style="fill:#f6c864; stroke:none;" d="M263 377L264 378L263 377M344 377L345 378L344 377M396 377L397 378L396 377M189 378L190 379L189 378M264 378L265 379L264 378M343 378L344 379L343 378M395 378L396 379L395 378M265 379L266 380L265 379z"/>
<path style="fill:#f3b62f; stroke:none;" d="M342 379L343 380L342 379z"/>
<path style="fill:#f6c864; stroke:none;" d="M394 379L395 380L394 379M188 380L189 381L188 380M266 380L267 381L266 380z"/>
<path style="fill:#fadfa2; stroke:none;" d="M340 380L341 381L340 380z"/>
<path style="fill:#f6c864; stroke:none;" d="M393 380L394 381L393 380z"/>
<path style="fill:#f3b62f; stroke:none;" d="M188 381L189 382L188 381z"/>
<path style="fill:#f6c864; stroke:none;" d="M267 381L268 382L267 381z"/>
<path style="fill:#fadfa2; stroke:none;" d="M339 381L340 382L339 381z"/>
<path style="fill:#f6c864; stroke:none;" d="M392 381L393 382L392 381z"/>
<path style="fill:#fadfa2; stroke:none;" d="M187 382L188 383L187 382z"/>
<path style="fill:#f6c864; stroke:none;" d="M268 382L269 383L268 382M338 382L339 383L338 382M391 382L392 383L391 382z"/>
<path style="fill:#f3b62f; stroke:none;" d="M187 383L188 384L187 383z"/>
<path style="fill:#f6c864; stroke:none;" d="M269 383L270 384L269 383z"/>
<path style="fill:#f3b62f; stroke:none;" d="M337 383L338 384L337 383z"/>
<path style="fill:#f6c864; stroke:none;" d="M390 383L391 384L390 383z"/>
<path style="fill:#fadfa2; stroke:none;" d="M186 384L187 385L186 384z"/>
<path style="fill:#f6c864; stroke:none;" d="M270 384L271 385L270 384z"/>
<path style="fill:#fadfa2; stroke:none;" d="M335 384L336 385L335 384z"/>
<path style="fill:#f3b62f; stroke:none;" d="M336 384L337 385L336 384z"/>
<path style="fill:#f6c864; stroke:none;" d="M389 384L390 385L389 384M186 385L187 386L186 385M271 385L272 386L271 385z"/>
<path style="fill:#fadfa2; stroke:none;" d="M334 385L335 386L334 385z"/>
<path style="fill:#f6c864; stroke:none;" d="M388 385L389 386L388 385z"/>
<path style="fill:#f3b62f; stroke:none;" d="M186 386L187 387L186 386z"/>
<path style="fill:#f6c864; stroke:none;" d="M272 386L273 387L272 386M333 386L334 387L333 386z"/>
<path style="fill:#fadfa2; stroke:none;" d="M387 386L388 387L387 386M185 387L186 388L185 387z"/>
<path style="fill:#f6c864; stroke:none;" d="M273 387L274 388L273 387z"/>
<path style="fill:#f3b62f; stroke:none;" d="M332 387L333 388L332 387z"/>
<path style="fill:#fadfa2; stroke:none;" d="M386 387L387 388L386 387z"/>
<path style="fill:#f6c864; stroke:none;" d="M185 388L186 389L185 388M224 388L225 389L224 388z"/>
<path style="fill:#f3b62f; stroke:none;" d="M225 388L228 391L225 388z"/>
<path style="fill:#f6c864; stroke:none;" d="M274 388L275 389L274 388z"/>
<path style="fill:#f3b62f; stroke:none;" d="M331 388L332 389L331 388z"/>
<path style="fill:#fadfa2; stroke:none;" d="M385 388L386 389L385 388z"/>
<path style="fill:#f3b62f; stroke:none;" d="M185 389L186 390L185 389M223 389L224 390L223 389z"/>
<path style="fill:#ffffff; stroke:none;" d="M224 389C217.573 401.215 212.78 414.22 211 428C223.139 426.94 239.315 421.363 249 414C243.328 405.948 232.939 393.18 224 389z"/>
<path style="fill:#f6c864; stroke:none;" d="M275 389L276 390L275 389z"/>
<path style="fill:#fadfa2; stroke:none;" d="M329 389L330 390L329 389M184 390L185 391L184 390M223 390L224 391L223 390z"/>
<path style="fill:#f6c864; stroke:none;" d="M276 390L277 391L276 390M328 390L329 391L328 390M184 391L185 392L184 391M222 391L223 392L222 391M277 391L278 392L277 391M327 391L328 392L327 391z"/>
<path style="fill:#f3b62f; stroke:none;" d="M381 391L382 392L381 391M184 392L185 393L184 392z"/>
<path style="fill:#f6c864; stroke:none;" d="M278 392L279 393L278 392z"/>
<path style="fill:#f3b62f; stroke:none;" d="M326 392L327 393L326 392M380 392L381 393L380 392z"/>
<path style="fill:#fadfa2; stroke:none;" d="M183 393L184 394L183 393M221 393L222 394L221 393z"/>
<path style="fill:#f6c864; stroke:none;" d="M279 393L280 394L279 393z"/>
<path style="fill:#fadfa2; stroke:none;" d="M324 393L325 394L324 393z"/>
<path style="fill:#f6c864; stroke:none;" d="M379 393L380 394L379 393M183 394L184 395L183 394z"/>
<path style="fill:#f3b62f; stroke:none;" d="M220 394L221 395L220 394z"/>
<path style="fill:#f6c864; stroke:none;" d="M280 394L281 395L280 394z"/>
<path style="fill:#fadfa2; stroke:none;" d="M323 394L324 395L323 394z"/>
<path style="fill:#f6c864; stroke:none;" d="M378 394L379 395L378 394z"/>
<path style="fill:#f3b62f; stroke:none;" d="M183 395L184 396L183 395z"/>
<path style="fill:#fadfa2; stroke:none;" d="M220 395L221 396L220 395z"/>
<path style="fill:#f6c864; stroke:none;" d="M281 395L282 396L281 395M322 395L323 396L322 395M377 395L378 396L377 395z"/>
<path style="fill:#fadfa2; stroke:none;" d="M182 396L183 397L182 396z"/>
<path style="fill:#f6c864; stroke:none;" d="M219 396L220 397L219 396z"/>
<path style="fill:#fadfa2; stroke:none;" d="M232 396L233 397L232 396z"/>
<path style="fill:#f6c864; stroke:none;" d="M282 396L283 397L282 396z"/>
<path style="fill:#f3b62f; stroke:none;" d="M321 396L322 397L321 396z"/>
<path style="fill:#fadfa2; stroke:none;" d="M376 396L377 397L376 396z"/>
<path style="fill:#f6c864; stroke:none;" d="M182 397L183 398L182 397z"/>
<path style="fill:#fadfa2; stroke:none;" d="M219 397L220 398L219 397M233 397L234 398L233 397z"/>
<path style="fill:#f6c864; stroke:none;" d="M283 397L284 398L283 397z"/>
<path style="fill:#fadfa2; stroke:none;" d="M319 397L320 398L319 397M375 397L376 398L375 397z"/>
<path style="fill:#f3b62f; stroke:none;" d="M182 398L183 399L182 398M218 398L219 399L218 398z"/>
<path style="fill:#fadfa2; stroke:none;" d="M234 398L235 399L234 398z"/>
<path style="fill:#f6c864; stroke:none;" d="M284 398L285 399L284 398M318 398L319 399L318 398z"/>
<path style="fill:#fadfa2; stroke:none;" d="M374 398L375 399L374 398M181 399L182 400L181 399z"/>
<path style="fill:#f6c864; stroke:none;" d="M218 399L219 400L218 399z"/>
<path style="fill:#fadfa2; stroke:none;" d="M235 399L236 400L235 399M285.333 399.667L285.667 400.333L285.333 399.667M316 399L317 400L316 399z"/>
<path style="fill:#f3b62f; stroke:none;" d="M317 399L318 400L317 399M372 399L373 400L372 399z"/>
<path style="fill:#f6c864; stroke:none;" d="M181 400L182 401L181 400z"/>
<path style="fill:#fadfa2; stroke:none;" d="M236 400L237 401L236 400z"/>
<path style="fill:#f6c864; stroke:none;" d="M315 400L316 401L315 400z"/>
<path style="fill:#f3b62f; stroke:none;" d="M371 400L372 401L371 400M181 401L182 402L181 401M217 401L218 402L217 401z"/>
<path style="fill:#fadfa2; stroke:none;" d="M237 401L238 402L237 401M286 401L287 402L286 401z"/>
<path style="fill:#f3b62f; stroke:none;" d="M314 401L315 402L314 401z"/>
<path style="fill:#f6c864; stroke:none;" d="M370 401L371 402L370 401z"/>
<path style="fill:#fadfa2; stroke:none;" d="M217 402L218 403L217 402M238 402L239 403L238 402M287 402L288 403L287 402M312 402L313 403L312 402z"/>
<path style="fill:#f6c864; stroke:none;" d="M369 402L370 403L369 402z"/>
<path style="fill:#fadfa2; stroke:none;" d="M180 403L181 404L180 403M239 403L240 404L239 403z"/>
<path style="fill:#f3b62f; stroke:none;" d="M311 403L312 404L311 403z"/>
<path style="fill:#f6c864; stroke:none;" d="M368 403L368 455L369 455L369 420L368 403M180 404L181 405L180 404M216 404L217 405L216 404z"/>
<path style="fill:#fadfa2; stroke:none;" d="M240 404L241 405L240 404M309 404L310 405L309 404M216 405L217 406L216 405M241 405L242 406L241 405z"/>
<path style="fill:#f6c864; stroke:none;" d="M308 405L309 406L308 405z"/>
<path style="fill:#fadfa2; stroke:none;" d="M179 406L180 407L179 406M242 406L243 407L242 406z"/>
<path style="fill:#f3b62f; stroke:none;" d="M290 406L291 407L290 406z"/>
<path style="fill:#fadfa2; stroke:none;" d="M306 406L307 407L306 406z"/>
<path style="fill:#f3b62f; stroke:none;" d="M307 406L308 407L307 406z"/>
<path style="fill:#f6c864; stroke:none;" d="M179 407L180 408L179 407z"/>
<path style="fill:#f3b62f; stroke:none;" d="M215 407L216 408L215 407z"/>
<path style="fill:#fadfa2; stroke:none;" d="M243 407L244 408L243 407z"/>
<path style="fill:#f3b62f; stroke:none;" d="M291 407L292 408L291 407z"/>
<path style="fill:#f6c864; stroke:none;" d="M305 407L306 408L305 407z"/>
<path style="fill:#f3b62f; stroke:none;" d="M179 408L180 409L179 408z"/>
<path style="fill:#fadfa2; stroke:none;" d="M215 408L216 409L215 408M244 408L245 409L244 408z"/>
<path style="fill:#f3b62f; stroke:none;" d="M292 408L293 409L292 408z"/>
<path style="fill:#fadfa2; stroke:none;" d="M303 408L304 409L303 408z"/>
<path style="fill:#f3b62f; stroke:none;" d="M304 408L305 409L304 408z"/>
<path style="fill:#fadfa2; stroke:none;" d="M245 409L246 410L245 409z"/>
<path style="fill:#f3b62f; stroke:none;" d="M293 409L294 410L293 409z"/>
<path style="fill:#fadfa2; stroke:none;" d="M302 409L303 410L302 409M178 410L179 411L178 410z"/>
<path style="fill:#f3b62f; stroke:none;" d="M214 410L215 411L214 410z"/>
<path style="fill:#fadfa2; stroke:none;" d="M246 410L247 411L246 410z"/>
<path style="fill:#f3b62f; stroke:none;" d="M294 410L295 411L294 410M301 410L302 411L301 410z"/>
<path style="fill:#f6c864; stroke:none;" d="M178 411L179 412L178 411M214 411L215 412L214 411z"/>
<path style="fill:#fadfa2; stroke:none;" d="M247 411L248 412L247 411z"/>
<path style="fill:#f3b62f; stroke:none;" d="M295 411L296 412L295 411z"/>
<path style="fill:#fadfa2; stroke:none;" d="M299 411L300 412L299 411M214 412L215 413L214 412M248 412L249 413L248 412z"/>
<path style="fill:#f3b62f; stroke:none;" d="M296 412L297 413L296 412z"/>
<path style="fill:#f6c864; stroke:none;" d="M298 412L299 413L298 412M249 413L250 414L249 413z"/>
<path style="fill:#fadfa2; stroke:none;" d="M177 414L178 415L177 414z"/>
<path style="fill:#f6c864; stroke:none;" d="M213 414L214 415L213 414z"/>
<path style="fill:#fadfa2; stroke:none;" d="M248 414L249 415L248 414z"/>
<path style="fill:#f6c864; stroke:none;" d="M177 415L178 416L177 415z"/>
<path style="fill:#fadfa2; stroke:none;" d="M213 415L214 416L213 415z"/>
<path style="fill:#f6c864; stroke:none;" d="M247 415L248 416L247 415z"/>
<path style="fill:#f3b62f; stroke:none;" d="M177 416L178 417L177 416z"/>
<path style="fill:#fadfa2; stroke:none;" d="M245 416L246 417L245 416z"/>
<path style="fill:#f3b62f; stroke:none;" d="M246 416L247 417L246 416M212 417L213 418L212 417z"/>
<path style="fill:#fadfa2; stroke:none;" d="M244 417L245 418L244 417M176 418L177 419L176 418z"/>
<path style="fill:#f6c864; stroke:none;" d="M212 418L213 419L212 418z"/>
<path style="fill:#fadfa2; stroke:none;" d="M242 418L243 419L242 418z"/>
<path style="fill:#f3b62f; stroke:none;" d="M243 418L244 419L243 418z"/>
<path style="fill:#f6c864; stroke:none;" d="M176 419L177 420L176 419z"/>
<path style="fill:#fadfa2; stroke:none;" d="M212 419L213 420L212 419M239 419L240 420L239 419z"/>
<path style="fill:#f6c864; stroke:none;" d="M240 419L241 420L240 419z"/>
<path style="fill:#f3b62f; stroke:none;" d="M241 419L242 420L241 419M176 420L177 421L176 420z"/>
<path style="fill:#fadfa2; stroke:none;" d="M237 420L238 421L237 420z"/>
<path style="fill:#f3b62f; stroke:none;" d="M238 420L239 421L238 420M211 421L212 422L211 421z"/>
<path style="fill:#fadfa2; stroke:none;" d="M234 421L235 422L234 421z"/>
<path style="fill:#f3b62f; stroke:none;" d="M235 421L236 422L235 421z"/>
<path style="fill:#f6c864; stroke:none;" d="M211 422L212 423L211 422z"/>
<path style="fill:#fadfa2; stroke:none;" d="M231 422L232 423L231 422z"/>
<path style="fill:#f3b62f; stroke:none;" d="M232 422L233 423L232 422z"/>
<path style="fill:#f6c864; stroke:none;" d="M341 422L343 424L341 422z"/>
<path style="fill:#fadfa2; stroke:none;" d="M342 422L343 423L342 422M175 423L176 424L175 423M211.333 423.667L211.667 424.333L211.333 423.667M227 423L228 424L227 423z"/>
<path style="fill:#f6c864; stroke:none;" d="M228 423L229 424L228 423z"/>
<path style="fill:#f3b62f; stroke:none;" d="M229 423L230 424L229 423M339 423L340 424L339 423z"/>
<path style="fill:#ffffff; stroke:none;" d="M311 462C327.108 454.622 340.586 440.769 342 423C334.567 425.721 317.037 433.814 313.564 441.185C310.871 446.9 311.493 455.759 311 462z"/>
<path style="fill:#f6c864; stroke:none;" d="M175 424L176 425L175 424z"/>
<path style="fill:#fadfa2; stroke:none;" d="M224 424L225 425L224 424z"/>
<path style="fill:#f6c864; stroke:none;" d="M225 424L226 425L225 424z"/>
<path style="fill:#f3b62f; stroke:none;" d="M226 424L227 425L226 424z"/>
<path style="fill:#fadfa2; stroke:none;" d="M338 424L339 425L338 424z"/>
<path style="fill:#f3b62f; stroke:none;" d="M342 424L343 425L342 424M175 425L176 426L175 425z"/>
<path style="fill:#fadfa2; stroke:none;" d="M221 425L222 426L221 425z"/>
<path style="fill:#f6c864; stroke:none;" d="M222 425L223 426L222 425M336 425L337 426L336 425z"/>
<path style="fill:#fadfa2; stroke:none;" d="M218 426L219 427L218 426z"/>
<path style="fill:#f3b62f; stroke:none;" d="M219 426L220 427L219 426M334 426L335 427L334 426z"/>
<path style="fill:#fadfa2; stroke:none;" d="M174 427L175 428L174 427z"/>
<path style="fill:#f3b62f; stroke:none;" d="M210 427L211 428L210 427z"/>
<path style="fill:#fadfa2; stroke:none;" d="M215 427L216 428L215 427z"/>
<path style="fill:#f3b62f; stroke:none;" d="M216 427L217 428L216 427z"/>
<path style="fill:#fadfa2; stroke:none;" d="M333 427L334 428L333 427M341 427L342 428L341 427z"/>
<path style="fill:#f6c864; stroke:none;" d="M174 428L175 429L174 428M210 428L211 429L210 428z"/>
<path style="fill:#fadfa2; stroke:none;" d="M211 428L212 429L211 428z"/>
<path style="fill:#f6c864; stroke:none;" d="M212 428L213 429L212 428z"/>
<path style="fill:#f3b62f; stroke:none;" d="M213 428L214 429L213 428z"/>
<path style="fill:#f6c864; stroke:none;" d="M331 428L332 429L331 428M341 428L342 429L341 428z"/>
<path style="fill:#f3b62f; stroke:none;" d="M174 429L175 430L174 429M329 429L330 430L329 429M341 429L342 430L341 429z"/>
<path style="fill:#fadfa2; stroke:none;" d="M328 430L329 431L328 430M173.333 431.667L173.667 432.333L173.333 431.667z"/>
<path style="fill:#f6c864; stroke:none;" d="M326 431L327 432L326 431z"/>
<path style="fill:#fadfa2; stroke:none;" d="M340 432L341 433L340 432z"/>
<path style="fill:#f6c864; stroke:none;" d="M173 433L174 434L173 433z"/>
<path style="fill:#fadfa2; stroke:none;" d="M323 433L324 434L323 433z"/>
<path style="fill:#f6c864; stroke:none;" d="M340 433L341 434L340 433z"/>
<path style="fill:#f3b62f; stroke:none;" d="M321 434L322 435L321 434M340 434L341 435L340 434z"/>
<path style="fill:#fadfa2; stroke:none;" d="M320 435L321 436L320 435M172 436L173 437L172 436z"/>
<path style="fill:#f6c864; stroke:none;" d="M318 436L319 437L318 436M172 437L173 438L172 437z"/>
<path style="fill:#f3b62f; stroke:none;" d="M316 437L317 438L316 437z"/>
<path style="fill:#fadfa2; stroke:none;" d="M339 437L340 438L339 437z"/>
<path style="fill:#f3b62f; stroke:none;" d="M172 438L173 439L172 438z"/>
<path style="fill:#fadfa2; stroke:none;" d="M315 438L316 439L315 438z"/>
<path style="fill:#f6c864; stroke:none;" d="M339 438L340 439L339 438M313 439L314 440L313 439z"/>
<path style="fill:#f3b62f; stroke:none;" d="M339 439L340 440L339 439M312 440L313 441L312 440z"/>
<path style="fill:#fadfa2; stroke:none;" d="M338 440L339 441L338 440M171.333 441.667L171.667 442.333L171.333 441.667z"/>
<path style="fill:#f3b62f; stroke:none;" d="M273 441L274 442L273 441z"/>
<path style="fill:#fadfa2; stroke:none;" d="M274.667 441.333L275.333 441.667L274.667 441.333z"/>
<path style="fill:#f6c864; stroke:none;" d="M312.333 441.667L312.667 442.333L312.333 441.667M337 441L338 442L337 441M272 442L273 443L272 442z"/>
<path style="fill:#fadfa2; stroke:none;" d="M276 442L276 485L277 485C277 472.781 280.71 453.226 276 442z"/>
<path style="fill:#f3b62f; stroke:none;" d="M336 442L337 443L336 442z"/>
<path style="fill:#f6c864; stroke:none;" d="M171 443L172 444L171 443z"/>
<path style="fill:#fadfa2; stroke:none;" d="M271 443L272 444L271 443M312 443L312 446L313 446L312 443z"/>
<path style="fill:#f3b62f; stroke:none;" d="M171 444L172 445L171 444z"/>
<path style="fill:#f6c864; stroke:none;" d="M269 444L270 445L269 444z"/>
<path style="fill:#fadfa2; stroke:none;" d="M333 444L334 445L333 444z"/>
<path style="fill:#f6c864; stroke:none;" d="M267 445L268 446L267 445z"/>
<path style="fill:#fadfa2; stroke:none;" d="M268 445L269 446L268 445z"/>
<path style="fill:#f6c864; stroke:none;" d="M332 445L333 446L332 445z"/>
<path style="fill:#fadfa2; stroke:none;" d="M170.333 446.667L170.667 447.333L170.333 446.667z"/>
<path style="fill:#f3b62f; stroke:none;" d="M265 446L266 447L265 446z"/>
<path style="fill:#fadfa2; stroke:none;" d="M266 446L267 447L266 446z"/>
<path style="fill:#f3b62f; stroke:none;" d="M331 446L332 447L331 446z"/>
<path style="fill:#f6c864; stroke:none;" d="M263 447L264 448L263 447z"/>
<path style="fill:#fadfa2; stroke:none;" d="M264 447L265 448L264 447z"/>
<path style="fill:#f3b62f; stroke:none;" d="M330 447L331 448L330 447z"/>
<path style="fill:#f6c864; stroke:none;" d="M170 448L171 449L170 448z"/>
<path style="fill:#f3b62f; stroke:none;" d="M260 448L261 449L260 448z"/>
<path style="fill:#f6c864; stroke:none;" d="M261 448L262 449L261 448z"/>
<path style="fill:#fadfa2; stroke:none;" d="M262 448L263 449L262 448z"/>
<path style="fill:#f3b62f; stroke:none;" d="M170 449L171 450L170 449M258 449L259 450L258 449z"/>
<path style="fill:#fadfa2; stroke:none;" d="M259 449L260 450L259 449M327 449L328 450L327 449z"/>
<path style="fill:#f6c864; stroke:none;" d="M256 450L257 451L256 450z"/>
<path style="fill:#fadfa2; stroke:none;" d="M257 450L258 451L257 450z"/>
<path style="fill:#f6c864; stroke:none;" d="M326 450L327 451L326 450z"/>
<path style="fill:#f3b62f; stroke:none;" d="M253 451L254 452L253 451z"/>
<path style="fill:#f6c864; stroke:none;" d="M254 451L255 452L254 451z"/>
<path style="fill:#f3b62f; stroke:none;" d="M325 451L326 452L325 451z"/>
<path style="fill:#fadfa2; stroke:none;" d="M169.333 452.667L169.667 453.333L169.333 452.667z"/>
<path style="fill:#f3b62f; stroke:none;" d="M250 452L251 453L250 452z"/>
<path style="fill:#f6c864; stroke:none;" d="M251 452L252 453L251 452z"/>
<path style="fill:#fadfa2; stroke:none;" d="M252 452L253 453L252 452z"/>
<path style="fill:#f3b62f; stroke:none;" d="M311.333 452.667L311.667 453.333L311.333 452.667M247 453L248 454L247 453z"/>
<path style="fill:#f6c864; stroke:none;" d="M248 453L249 454L248 453z"/>
<path style="fill:#fadfa2; stroke:none;" d="M249 453L250 454L249 453M322 453L323 454L322 453z"/>
<path style="fill:#f6c864; stroke:none;" d="M169 454L170 455L169 454z"/>
<path style="fill:#f3b62f; stroke:none;" d="M244 454L245 455L244 454z"/>
<path style="fill:#f6c864; stroke:none;" d="M245 454L246 455L245 454z"/>
<path style="fill:#fadfa2; stroke:none;" d="M246 454L247 455L246 454z"/>
<path style="fill:#f6c864; stroke:none;" d="M311.333 454.667L311.667 455.333L311.333 454.667M321 454L322 455L321 454z"/>
<path style="fill:#f3b62f; stroke:none;" d="M169 455L170 456L169 455z"/>
<path style="fill:#f6c864; stroke:none;" d="M242 455L243 456L242 455z"/>
<path style="fill:#fadfa2; stroke:none;" d="M243 455L244 456L243 455z"/>
<path style="fill:#f3b62f; stroke:none;" d="M320 455L321 456L320 455z"/>
<path style="fill:#f6c864; stroke:none;" d="M367 455L368 456L367 455z"/>
<path style="fill:#f3b62f; stroke:none;" d="M238 456L239 457L238 456z"/>
<path style="fill:#f6c864; stroke:none;" d="M239 456L240 457L239 456z"/>
<path style="fill:#fadfa2; stroke:none;" d="M240 456L241 457L240 456M311.333 456.667L311.667 457.333L311.333 456.667z"/>
<path style="fill:#f6c864; stroke:none;" d="M366 456L367 457L366 456M235 457L236 458L235 457z"/>
<path style="fill:#fadfa2; stroke:none;" d="M236.667 457.333L237.333 457.667L236.667 457.333M317 457L318 458L317 457z"/>
<path style="fill:#f6c864; stroke:none;" d="M365 457L366 458L365 457z"/>
<path style="fill:#fadfa2; stroke:none;" d="M168.333 458.667L168.667 459.333L168.333 458.667z"/>
<path style="fill:#f3b62f; stroke:none;" d="M231 458L232 459L231 458z"/>
<path style="fill:#f6c864; stroke:none;" d="M232 458L233 459L232 458z"/>
<path style="fill:#fadfa2; stroke:none;" d="M233 458L234 459L233 458M316 458L317 459L316 458M364 458L365 459L364 458z"/>
<path style="fill:#f3b62f; stroke:none;" d="M228 459L229 460L228 459z"/>
<path style="fill:#fadfa2; stroke:none;" d="M229 459L230 460L229 459z"/>
<path style="fill:#f6c864; stroke:none;" d="M315 459L316 460L315 459z"/>
<path style="fill:#fadfa2; stroke:none;" d="M363 459L364 460L363 459z"/>
<path style="fill:#f6c864; stroke:none;" d="M168 460L169 461L168 460z"/>
<path style="fill:#f3b62f; stroke:none;" d="M224 460L225 461L224 460z"/>
<path style="fill:#f6c864; stroke:none;" d="M225 460L226 461L225 460z"/>
<path style="fill:#fadfa2; stroke:none;" d="M226 460L227 461L226 460z"/>
<path style="fill:#f3b62f; stroke:none;" d="M314 460L315 461L314 460z"/>
<path style="fill:#fadfa2; stroke:none;" d="M362 460L363 461L362 460z"/>
<path style="fill:#f3b62f; stroke:none;" d="M168 461L169 462L168 461M219 461L220 462L219 461z"/>
<path style="fill:#f6c864; stroke:none;" d="M220 461L221 462L220 461z"/>
<path style="fill:#fadfa2; stroke:none;" d="M221.667 461.333L222.333 461.667L221.667 461.333z"/>
<path style="fill:#f3b62f; stroke:none;" d="M360 461L361 462L360 461z"/>
<path style="fill:#fadfa2; stroke:none;" d="M361 461L362 462L361 461z"/>
<path style="fill:#f3b62f; stroke:none;" d="M215 462L216 463L215 462z"/>
<path style="fill:#f6c864; stroke:none;" d="M216 462L217 463L216 462z"/>
<path style="fill:#fadfa2; stroke:none;" d="M217 462L218 463L217 462M311 462L312 463L311 462z"/>
<path style="fill:#f3b62f; stroke:none;" d="M359 462L360 463L359 462z"/>
<path style="fill:#f6c864; stroke:none;" d="M211 463L212 464L211 463z"/>
<path style="fill:#fadfa2; stroke:none;" d="M212.667 463.333L213.333 463.667L212.667 463.333z"/>
<path style="fill:#f3b62f; stroke:none;" d="M358 463L359 464L358 463z"/>
<path style="fill:#fadfa2; stroke:none;" d="M167 464L168 465L167 464z"/>
<path style="fill:#f3b62f; stroke:none;" d="M206 464L207 465L206 464z"/>
<path style="fill:#f6c864; stroke:none;" d="M207 464L208 465L207 464z"/>
<path style="fill:#fadfa2; stroke:none;" d="M208 464L209 465L208 464z"/>
<path style="fill:#f6c864; stroke:none;" d="M357 464L358 465L357 464M167 465L168 466L167 465z"/>
<path style="fill:#f3b62f; stroke:none;" d="M202 465L203 466L202 465z"/>
<path style="fill:#f6c864; stroke:none;" d="M203 465L204 466L203 465z"/>
<path style="fill:#fadfa2; stroke:none;" d="M204 465L205 466L204 465z"/>
<path style="fill:#f6c864; stroke:none;" d="M356 465L357 466L356 465z"/>
<path style="fill:#f3b62f; stroke:none;" d="M167 466L168 467L167 466M196 466L197 467L196 466z"/>
<path style="fill:#f6c864; stroke:none;" d="M197.667 466.333L198.333 466.667L197.667 466.333z"/>
<path style="fill:#fadfa2; stroke:none;" d="M199 466L200 467L199 466z"/>
<path style="fill:#f6c864; stroke:none;" d="M355 466L356 467L355 466z"/>
<path style="fill:#f3b62f; stroke:none;" d="M191 467L192 468L191 467z"/>
<path style="fill:#f6c864; stroke:none;" d="M192 467L193 468L192 467z"/>
<path style="fill:#fadfa2; stroke:none;" d="M193.667 467.333L194.333 467.667L193.667 467.333z"/>
<path style="fill:#f6c864; stroke:none;" d="M354 467L355 468L354 467z"/>
<path style="fill:#f3b62f; stroke:none;" d="M185 468L186 469L185 468z"/>
<path style="fill:#f6c864; stroke:none;" d="M186.667 468.333L187.333 468.667L186.667 468.333z"/>
<path style="fill:#fadfa2; stroke:none;" d="M188 468L189 469L188 468M353 468L354 469L353 468M166.333 469.667L166.667 470.333L166.333 469.667z"/>
<path style="fill:#f3b62f; stroke:none;" d="M180 469L181 470L180 469z"/>
<path style="fill:#f6c864; stroke:none;" d="M181 469L182 470L181 469z"/>
<path style="fill:#fadfa2; stroke:none;" d="M182.667 469.333L183.333 469.667L182.667 469.333M352 469L353 470L352 469z"/>
<path style="fill:#f3b62f; stroke:none;" d="M174 470L175 471L174 470z"/>
<path style="fill:#f6c864; stroke:none;" d="M175 470L176 471L175 470z"/>
<path style="fill:#fadfa2; stroke:none;" d="M176.667 470.333L177.333 470.667L176.667 470.333M351 470L352 471L351 470z"/>
<path style="fill:#f6c864; stroke:none;" d="M166 471L167 472L166 471M169.667 471.333L170.333 471.667L169.667 471.333z"/>
<path style="fill:#fadfa2; stroke:none;" d="M171 471L172 472L171 471M350 471L351 472L350 471z"/>
<path style="fill:#f3b62f; stroke:none;" d="M348 472L349 473L348 472z"/>
<path style="fill:#fadfa2; stroke:none;" d="M349 472L350 473L349 472z"/>
<path style="fill:#f3b62f; stroke:none;" d="M347 473L348 474L347 473M346 474L347 475L346 474z"/>
<path style="fill:#f6c864; stroke:none;" d="M345 475L346 476L345 475M344 476L345 477L344 476M343 477L344 478L343 477M342 478L343 479L342 478z"/>
<path style="fill:#fadfa2; stroke:none;" d="M341 479L342 480L341 479M340 480L341 481L340 480M339 481L340 482L339 481z"/>
<path style="fill:#f3b62f; stroke:none;" d="M337 482L338 483L337 482z"/>
<path style="fill:#fadfa2; stroke:none;" d="M338 482L339 483L338 482z"/>
<path style="fill:#f3b62f; stroke:none;" d="M336 483L337 484L336 483M335 484L336 485L335 484z"/>
<path style="fill:#f6c864; stroke:none;" d="M334 485L335 486L334 485M333 486L334 487L333 486M332 487L333 488L332 487z"/>
<path style="fill:#f3b62f; stroke:none;" d="M277 488L278 489L277 488z"/>
<path style="fill:#f6c864; stroke:none;" d="M331 488L332 489L331 488M277 489L278 490L277 489z"/>
<path style="fill:#fadfa2; stroke:none;" d="M330 489L331 490L330 489M277 490L278 491L277 490M329 490L330 491L329 490z"/>
<path style="fill:#f3b62f; stroke:none;" d="M278 491L279 492L278 491z"/>
<path style="fill:#fadfa2; stroke:none;" d="M328 491L329 492L328 491z"/>
<path style="fill:#f6c864; stroke:none;" d="M278 492L279 493L278 492z"/>
<path style="fill:#f3b62f; stroke:none;" d="M326 492L325 494L326 492z"/>
<path style="fill:#fadfa2; stroke:none;" d="M327 492L328 493L327 492M278 493L279 494L278 493M326 493L327 494L326 493z"/>
<path style="fill:#f6c864; stroke:none;" d="M279 494L280 495L279 494z"/>
<path style="fill:#f3b62f; stroke:none;" d="M324 494L325 495L324 494z"/>
<path style="fill:#fadfa2; stroke:none;" d="M279 495L280 496L279 495z"/>
<path style="fill:#f3b62f; stroke:none;" d="M323 495L324 496L323 495z"/>
<path style="fill:#f6c864; stroke:none;" d="M280 496L281 497L280 496M322 496L323 497L322 496z"/>
<path style="fill:#fadfa2; stroke:none;" d="M280 497L281 498L280 497z"/>
<path style="fill:#f6c864; stroke:none;" d="M321 497L322 498L321 497M281 498L282 499L281 498M320 498L321 499L320 498M282 499L283 500L282 499z"/>
<path style="fill:#fadfa2; stroke:none;" d="M319 499L320 500L319 499z"/>
<path style="fill:#f6c864; stroke:none;" d="M283 500L284 501L283 500z"/>
<path style="fill:#fadfa2; stroke:none;" d="M318 500L319 501L318 500z"/>
<path style="fill:#f6c864; stroke:none;" d="M284 501L285 502L284 501z"/>
<path style="fill:#fadfa2; stroke:none;" d="M317 501L318 502L317 501z"/>
<path style="fill:#f6c864; stroke:none;" d="M285 502L286 503L285 502z"/>
<path style="fill:#f3b62f; stroke:none;" d="M315 502L316 503L315 502z"/>
<path style="fill:#fadfa2; stroke:none;" d="M316 502L317 503L316 502M286 503L287 504L286 503z"/>
<path style="fill:#f6c864; stroke:none;" d="M314 503L315 504L314 503z"/>
<path style="fill:#fadfa2; stroke:none;" d="M287 504L288 505L287 504z"/>
<path style="fill:#f3b62f; stroke:none;" d="M288 504L289 505L288 504M312 504L313 505L312 504z"/>
<path style="fill:#f6c864; stroke:none;" d="M313 504L314 505L313 504z"/>
<path style="fill:#fadfa2; stroke:none;" d="M289 505L290 506L289 505z"/>
<path style="fill:#f3b62f; stroke:none;" d="M290 505L291 506L290 505M310 505L311 506L310 505z"/>
<path style="fill:#f6c864; stroke:none;" d="M311 505L312 506L311 505z"/>
<path style="fill:#fadfa2; stroke:none;" d="M291 506L292 507L291 506z"/>
<path style="fill:#f6c864; stroke:none;" d="M292 506L293 507L292 506z"/>
<path style="fill:#f3b62f; stroke:none;" d="M293 506L294 507L293 506M308 506L309 507L308 506z"/>
<path style="fill:#f6c864; stroke:none;" d="M309 506L310 507L309 506z"/>
<path style="fill:#fadfa2; stroke:none;" d="M294 507L295 508L294 507z"/>
<path style="fill:#f6c864; stroke:none;" d="M295 507L296 508L295 507z"/>
<path style="fill:#f3b62f; stroke:none;" d="M296.667 507.333L297.333 507.667L296.667 507.333M304 507L305 508L304 507z"/>
<path style="fill:#f6c864; stroke:none;" d="M305 507L306 508L305 507z"/>
<path style="fill:#fadfa2; stroke:none;" d="M306 507L307 508L306 507M300 508L301 509L300 508z"/>
</svg>
