<?xml version="1.0" standalone="yes"?>
<svg xmlns="http://www.w3.org/2000/svg" width="500" height="500">
<path style="fill:#ffffff; stroke:none;" d="M0 0L0 500L500 500L500 0L0 0z"/>
<path style="fill:#fbdea8; stroke:none;" d="M196.667 107.333L197.333 107.667L196.667 107.333z"/>
<path style="fill:#f7ce74; stroke:none;" d="M198 107L199 108L198 107z"/>
<path style="fill:#f1a501; stroke:none;" d="M176 246C180.581 272.52 211.233 294.753 237 297L237 314C215.627 314 193.345 312.64 179.159 332.001C171.846 341.981 161.768 377.788 182 378.957C215.091 380.868 248.848 379 282 379C293.109 379 313.034 382.826 322.956 377.543C335.511 370.858 327.927 345.235 322.662 336C309.575 313.044 284.948 314 262 314L262 297C281.062 295.338 299.795 283.833 311.482 269C316.352 262.82 318.61 253.977 323.699 248.318C326.629 245.06 332.982 245.247 337 244.09C343.626 242.182 349.963 238.641 354.985 233.907C371.791 218.064 369 194.966 369 174C369 164.541 370.233 154.452 365.069 146.015C360.287 138.2 351.931 134.434 343 134.039C339.077 133.866 332.851 135.252 329.419 132.972C325.722 130.516 324.804 123.598 322.211 120.004C316.311 111.826 306.733 108.112 297 107.17C273.772 104.922 249.344 107 226 107C213.529 107 199.572 105.18 188 110.821C182.057 113.718 177.669 118.211 174.519 124C173.008 126.775 172.507 131.16 169.697 132.972C166.181 135.239 159.99 133.858 156 134.039C148.921 134.361 142.054 136.864 137.105 142.043C127.977 151.594 130 165.895 130 178C130 189.469 128.87 201.785 131.761 213C136.924 233.031 155.864 245.944 176 246z"/>
<path style="fill:#f5be47; stroke:none;" d="M299 107L300 108L299 107z"/>
<path style="fill:#f7ce74; stroke:none;" d="M300 107L301 108L300 107z"/>
<path style="fill:#fbdea8; stroke:none;" d="M301.667 107.333L302.333 107.667L301.667 107.333M192.667 108.333L193.333 108.667L192.667 108.333z"/>
<path style="fill:#f5be47; stroke:none;" d="M194 108L195 109L194 108z"/>
<path style="fill:#f7ce74; stroke:none;" d="M305 108L306 109L305 108z"/>
<path style="fill:#fbdea8; stroke:none;" d="M306 108L307 109L306 108z"/>
<path style="fill:#f7ce74; stroke:none;" d="M190 109L191 110L190 109M308 109L309 110L308 109M188 110L189 111L188 110M310 110L311 111L310 110M186 111L187 112L186 111M312 111L313 112L312 111M314 112L315 113L314 112M183 113L184 114L183 113M315 113L316 114L315 113M177 119L178 120L177 119M322 120L323 121L322 120M175 122L176 123L175 122z"/>
<path style="fill:#fbdea8; stroke:none;" d="M324 123L325 124L324 123M173 125L174 126L173 125z"/>
<path style="fill:#f7ce74; stroke:none;" d="M325 125L326 126L325 125z"/>
<path style="fill:#fbdea8; stroke:none;" d="M172 127L173 128L172 127M326 127L327 128L326 127z"/>
<path style="fill:#f7ce74; stroke:none;" d="M172 128L173 129L172 128z"/>
<path style="fill:#f5be47; stroke:none;" d="M326 128L327 129L326 128z"/>
<path style="fill:#fbdea8; stroke:none;" d="M171.333 130.667L171.667 131.333L171.333 130.667M327 130L328 131L327 130z"/>
<path style="fill:#f7ce74; stroke:none;" d="M327 131L328 132L327 131M171 132L172 133L171 132z"/>
<path style="fill:#f5be47; stroke:none;" d="M204 132L205 133L204 132z"/>
<path style="fill:#f7ce74; stroke:none;" d="M205 132L205 133L294 133L267 132L205 132z"/>
<path style="fill:#f5be47; stroke:none;" d="M294 132L295 133L294 132z"/>
<path style="fill:#f7ce74; stroke:none;" d="M200 133L201 134L200 133z"/>
<path style="fill:#fbdea8; stroke:none;" d="M201.667 133.333L202.333 133.667L201.667 133.333z"/>
<path style="fill:#ffffff; stroke:none;" d="M203.005 133.483C196.516 134.925 196.029 140.279 196.001 146C195.94 158.333 196 170.667 196 183C196 219.329 193.865 261.307 238 271.87C244.604 273.45 252.325 273.7 259 272.334C265.014 271.103 270.579 269.091 276 266.218C309.478 248.476 303 207.785 303 176L303 148C303 144.313 303.728 139.397 301.258 136.303C296.689 130.583 283.437 133 277 133C253.915 133 225.517 128.481 203.005 133.483z"/>
<path style="fill:#fbdea8; stroke:none;" d="M296.667 133.333L297.333 133.667L296.667 133.333z"/>
<path style="fill:#f7ce74; stroke:none;" d="M298 133L299 134L298 133z"/>
<path style="fill:#fbdea8; stroke:none;" d="M149 134L150 135L149 134z"/>
<path style="fill:#f7ce74; stroke:none;" d="M150 134L151 135L150 134z"/>
<path style="fill:#f5be47; stroke:none;" d="M151 134L152 135L151 134M347 134L348 135L347 134z"/>
<path style="fill:#f7ce74; stroke:none;" d="M348 134L349 135L348 134z"/>
<path style="fill:#fbdea8; stroke:none;" d="M349.667 134.333L350.333 134.667L349.667 134.333M146 135L147 136L146 135z"/>
<path style="fill:#f5be47; stroke:none;" d="M147 135L148 136L147 135z"/>
<path style="fill:#f7ce74; stroke:none;" d="M301 135L302 136L301 135M352 135L353 136L352 135M144 136L145 137L144 136M354 136L355 137L354 136M142 137L143 138L142 137M196 137L197 138L196 137M302 137L303 138L302 137M356 137L357 138L356 137z"/>
<path style="fill:#fbdea8; stroke:none;" d="M196 138L197 139L196 138z"/>
<path style="fill:#f7ce74; stroke:none;" d="M138 140L139 141L138 140M303 140L304 141L303 140M360 140L361 141L360 140M137 141L138 142L137 141z"/>
<path style="fill:#fbdea8; stroke:none;" d="M303 141L303 144L304 144L303 141z"/>
<path style="fill:#f7ce74; stroke:none;" d="M136 142L137 143L136 142M362 142L363 143L362 142M303.333 144.667L303.667 145.333L303.333 144.667M133 146L134 147L133 146z"/>
<path style="fill:#f5be47; stroke:none;" d="M303.333 146.667L303.667 147.333L303.333 146.667z"/>
<path style="fill:#f7ce74; stroke:none;" d="M365 146L366 147L365 146M132 148L133 149L132 148M303 148L304 149L303 148M366 148L367 149L366 148z"/>
<path style="fill:#fbdea8; stroke:none;" d="M303 149L303 219L304 219L304 171L303 149M131 150L132 151L131 150z"/>
<path style="fill:#f7ce74; stroke:none;" d="M367 150L368 151L367 150z"/>
<path style="fill:#f5be47; stroke:none;" d="M131 151L132 152L131 151z"/>
<path style="fill:#fbdea8; stroke:none;" d="M368 152L369 153L368 152M130 153L131 154L130 153z"/>
<path style="fill:#f7ce74; stroke:none;" d="M368.333 153.667L368.667 154.333L368.333 153.667M130 154L131 155L130 154z"/>
<path style="fill:#f5be47; stroke:none;" d="M130 155L131 156L130 155z"/>
<path style="fill:#fbdea8; stroke:none;" d="M246 157L245 159L246 157z"/>
<path style="fill:#f1a501; stroke:none;" d="M225 172C227.767 184.066 232.922 187.212 243 181L243 227L265 227L265 157L248 157.563L225 172z"/>
<path style="fill:#fbdea8; stroke:none;" d="M265 157L265 227L266 227L266 179L265 157M369 158L369 206L370 206C370 192.474 374.209 170.414 369 158M129 159L129 202L130 202C130 189.781 133.71 170.226 129 159z"/>
<path style="fill:#f5be47; stroke:none;" d="M157 159L157 160L169 160L157 159z"/>
<path style="fill:#f7ce74; stroke:none;" d="M169 159L170 160L169 159z"/>
<path style="fill:#fbdea8; stroke:none;" d="M243 159L244 160L243 159z"/>
<path style="fill:#f5be47; stroke:none;" d="M244 159L245 160L244 159M329 159L329 160L342 160L329 159z"/>
<path style="fill:#ffffff; stroke:none;" d="M156 160C156 176.347 149.029 212.526 170 218L170 160L156 160z"/>
<path style="fill:#f5be47; stroke:none;" d="M170 160L170 219L171 219L171 179L170 160z"/>
<path style="fill:#fbdea8; stroke:none;" d="M242 160L243 161L242 160M329 160L329 219L330 219L330 179L329 160z"/>
<path style="fill:#ffffff; stroke:none;" d="M330 160L330 218C350.032 211.337 343 176.409 343 160L330 160z"/>
<path style="fill:#fbdea8; stroke:none;" d="M240 161L241 162L240 161z"/>
<path style="fill:#f5be47; stroke:none;" d="M241 161L242 162L241 161z"/>
<path style="fill:#f7ce74; stroke:none;" d="M343 161L343 201L344 201C344 189.566 347.411 171.512 343 161z"/>
<path style="fill:#fbdea8; stroke:none;" d="M239 162L240 163L239 162M237 163L238 164L237 163z"/>
<path style="fill:#f5be47; stroke:none;" d="M238 163L239 164L238 163z"/>
<path style="fill:#fbdea8; stroke:none;" d="M236 164L237 165L236 164M234 165L235 166L234 165z"/>
<path style="fill:#f5be47; stroke:none;" d="M235 165L236 166L235 165z"/>
<path style="fill:#fbdea8; stroke:none;" d="M233 166L234 167L233 166z"/>
<path style="fill:#f5be47; stroke:none;" d="M232 167L233 168L232 167z"/>
<path style="fill:#fbdea8; stroke:none;" d="M230 168L231 169L230 168z"/>
<path style="fill:#f5be47; stroke:none;" d="M229 169L230 170L229 169z"/>
<path style="fill:#fbdea8; stroke:none;" d="M227 170L228 171L227 170z"/>
<path style="fill:#f5be47; stroke:none;" d="M226 171L227 172L226 171z"/>
<path style="fill:#fbdea8; stroke:none;" d="M224 172L225 173L224 172z"/>
<path style="fill:#f5be47; stroke:none;" d="M224 173L225 174L224 173z"/>
<path style="fill:#fbdea8; stroke:none;" d="M225 175L226 176L225 175z"/>
<path style="fill:#f5be47; stroke:none;" d="M226 176L227 177L226 176z"/>
<path style="fill:#fbdea8; stroke:none;" d="M226 177L227 178L226 177z"/>
<path style="fill:#f7ce74; stroke:none;" d="M227 178L228 179L227 178z"/>
<path style="fill:#fbdea8; stroke:none;" d="M228 180L229 181L228 180z"/>
<path style="fill:#f5be47; stroke:none;" d="M229 181L230 182L229 181M241 181L242 182L241 181z"/>
<path style="fill:#fbdea8; stroke:none;" d="M242 181L243 182L242 181M229 182L230 183L229 182M240 182L241 183L240 182M230 183L231 184L230 183M239 183L240 184L239 183z"/>
<path style="fill:#f7ce74; stroke:none;" d="M237 184L238 185L237 184z"/>
<path style="fill:#fbdea8; stroke:none;" d="M231 185L232 186L231 185M236 185L237 186L236 185z"/>
<path style="fill:#f5be47; stroke:none;" d="M232 186L233 187L232 186z"/>
<path style="fill:#f7ce74; stroke:none;" d="M234 186L235 187L234 186z"/>
<path style="fill:#fbdea8; stroke:none;" d="M233 187L234 188L233 187M156 201L156 204L157 204L156 201z"/>
<path style="fill:#f5be47; stroke:none;" d="M343 201L344 202L343 201M130 204L131 205L130 204z"/>
<path style="fill:#f7ce74; stroke:none;" d="M156 204L157 205L156 204z"/>
<path style="fill:#fbdea8; stroke:none;" d="M342 204L343 205L342 204z"/>
<path style="fill:#f7ce74; stroke:none;" d="M130.333 205.667L130.667 206.333L130.333 205.667M342 205L343 206L342 205z"/>
<path style="fill:#fbdea8; stroke:none;" d="M130 207L130 210L131 210L130 207z"/>
<path style="fill:#f7ce74; stroke:none;" d="M157 207L158 208L157 207z"/>
<path style="fill:#fbdea8; stroke:none;" d="M341 207L342 208L341 207z"/>
<path style="fill:#f7ce74; stroke:none;" d="M368 207L368 210L369 210L368 207M158 209L159 210L158 209z"/>
<path style="fill:#fbdea8; stroke:none;" d="M340 209L341 210L340 209z"/>
<path style="fill:#f5be47; stroke:none;" d="M367 211L368 212L367 211z"/>
<path style="fill:#f7ce74; stroke:none;" d="M131 212L132 213L131 212M160 212L161 213L160 212z"/>
<path style="fill:#fbdea8; stroke:none;" d="M338 212L339 213L338 212z"/>
<path style="fill:#f7ce74; stroke:none;" d="M367 212L368 213L367 212z"/>
<path style="fill:#fbdea8; stroke:none;" d="M131 213L132 214L131 213z"/>
<path style="fill:#f7ce74; stroke:none;" d="M161 213L162 214L161 213z"/>
<path style="fill:#fbdea8; stroke:none;" d="M367 213L368 214L367 213z"/>
<path style="fill:#f7ce74; stroke:none;" d="M162 214L163 215L162 214M336 214L337 215L336 214M132 215L133 216L132 215M335 215L336 216L335 215M366 215L367 216L366 215z"/>
<path style="fill:#fbdea8; stroke:none;" d="M132 216L133 217L132 216M366 216L367 217L366 216z"/>
<path style="fill:#f5be47; stroke:none;" d="M166 217L167 218L166 217z"/>
<path style="fill:#fbdea8; stroke:none;" d="M167 217L168 218L167 217z"/>
<path style="fill:#f7ce74; stroke:none;" d="M332 217L333 218L332 217z"/>
<path style="fill:#fbdea8; stroke:none;" d="M133 218L134 219L133 218M169 218L170 219L169 218z"/>
<path style="fill:#f7ce74; stroke:none;" d="M330 218L331 219L330 218M365 218L366 219L365 218M303.333 219.667L303.667 220.333L303.333 219.667z"/>
<path style="fill:#fbdea8; stroke:none;" d="M365 219L366 220L365 219z"/>
<path style="fill:#f7ce74; stroke:none;" d="M134 220L135 221L134 220z"/>
<path style="fill:#f5be47; stroke:none;" d="M303 221L304 222L303 221z"/>
<path style="fill:#fbdea8; stroke:none;" d="M135 222L136 223L135 222M196 222L196 228L197 228L196 222z"/>
<path style="fill:#f7ce74; stroke:none;" d="M363 222L364 223L363 222M362 224L363 225L362 224M137 225L138 226L137 225z"/>
<path style="fill:#fbdea8; stroke:none;" d="M302.333 226.667L302.667 227.333L302.333 226.667z"/>
<path style="fill:#f7ce74; stroke:none;" d="M360 227L361 228L360 227M139 228L140 229L139 228M196 228L197 229L196 228M302.333 228.667L302.667 229.333L302.333 228.667M140 229L141 230L140 229z"/>
<path style="fill:#fbdea8; stroke:none;" d="M197 231L198 232L197 231z"/>
<path style="fill:#f7ce74; stroke:none;" d="M197 232L198 233L197 232z"/>
<path style="fill:#fbdea8; stroke:none;" d="M301 232L302 233L301 232z"/>
<path style="fill:#f5be47; stroke:none;" d="M197 233L198 234L197 233z"/>
<path style="fill:#f7ce74; stroke:none;" d="M301 233L302 234L301 233M146 235L147 236L146 235z"/>
<path style="fill:#fbdea8; stroke:none;" d="M198 235L199 236L198 235z"/>
<path style="fill:#f7ce74; stroke:none;" d="M147 236L148 237L147 236M198 236L199 237L198 236z"/>
<path style="fill:#fbdea8; stroke:none;" d="M300 236L301 237L300 236z"/>
<path style="fill:#f7ce74; stroke:none;" d="M350 237L351 238L350 237z"/>
<path style="fill:#fbdea8; stroke:none;" d="M199 238L200 239L199 238M299 238L300 239L299 238M151 239L152 240L151 239z"/>
<path style="fill:#f7ce74; stroke:none;" d="M199 239L200 240L199 239M299 239L300 240L299 239M347 239L348 240L347 239M153 240L154 241L153 240M345 240L346 241L345 240M155 241L156 242L155 241M200 241L201 242L200 241z"/>
<path style="fill:#fbdea8; stroke:none;" d="M298 241L299 242L298 241z"/>
<path style="fill:#f7ce74; stroke:none;" d="M157 242L158 243L157 242M341 242L342 243L341 242z"/>
<path style="fill:#fbdea8; stroke:none;" d="M342 242L343 243L342 242M159 243L160 244L159 243z"/>
<path style="fill:#f7ce74; stroke:none;" d="M201 243L202 244L201 243z"/>
<path style="fill:#fbdea8; stroke:none;" d="M297 243L298 244L297 243M339 243L340 244L339 243M161.667 244.333L162.333 244.667L161.667 244.333z"/>
<path style="fill:#f7ce74; stroke:none;" d="M163 244L164 245L163 244M297 244L298 245L297 244M335 244L336 245L335 244z"/>
<path style="fill:#fbdea8; stroke:none;" d="M336.667 244.333L337.333 244.667L336.667 244.333M165 245L166 246L165 245z"/>
<path style="fill:#f7ce74; stroke:none;" d="M166 245L167 246L166 245z"/>
<path style="fill:#f5be47; stroke:none;" d="M167 245L168 246L167 245z"/>
<path style="fill:#f7ce74; stroke:none;" d="M202 245L203 246L202 245z"/>
<path style="fill:#f5be47; stroke:none;" d="M331 245L332 246L331 245z"/>
<path style="fill:#f7ce74; stroke:none;" d="M332 245L333 246L332 245z"/>
<path style="fill:#fbdea8; stroke:none;" d="M333 245L334 246L333 245M173 246L173 247L176 248L173 246z"/>
<path style="fill:#f7ce74; stroke:none;" d="M175 246L176 247L175 246z"/>
<path style="fill:#fbdea8; stroke:none;" d="M324.667 246.333L325.333 246.667L324.667 246.333z"/>
<path style="fill:#f7ce74; stroke:none;" d="M295 247L296 248L295 247z"/>
<path style="fill:#fbdea8; stroke:none;" d="M323 247L324 248L323 247z"/>
<path style="fill:#f7ce74; stroke:none;" d="M204 248L205 249L204 248z"/>
<path style="fill:#fbdea8; stroke:none;" d="M176 249L177 250L176 249z"/>
<path style="fill:#f7ce74; stroke:none;" d="M294 249L295 250L294 249M322 249L323 250L322 249M205 250L206 251L205 250z"/>
<path style="fill:#fbdea8; stroke:none;" d="M322 250L323 251L322 250z"/>
<path style="fill:#f7ce74; stroke:none;" d="M177 251L178 252L177 251z"/>
<path style="fill:#fbdea8; stroke:none;" d="M177 252L178 253L177 252M321 252L322 253L321 252z"/>
<path style="fill:#f7ce74; stroke:none;" d="M291 253L292 254L291 253M290 254L291 255L290 254M320 254L321 255L320 254M179 255L180 256L179 255M209 255L210 256L209 255z"/>
<path style="fill:#fbdea8; stroke:none;" d="M179 256L180 257L179 256z"/>
<path style="fill:#f7ce74; stroke:none;" d="M210 256L211 257L210 256z"/>
<path style="fill:#fbdea8; stroke:none;" d="M319 256L320 257L319 256z"/>
<path style="fill:#f7ce74; stroke:none;" d="M211 257L212 258L211 257M212 258L213 259L212 258z"/>
<path style="fill:#fbdea8; stroke:none;" d="M318 258L319 259L318 258z"/>
<path style="fill:#f7ce74; stroke:none;" d="M181 259L182 260L181 259M213 259L214 260L213 259M214 260L215 261L214 260M182 261L183 262L182 261M283 261L284 262L283 261M316 261L317 262L316 261M218 263L219 264L218 263M280 263L281 264L280 263M184 264L185 265L184 264M314 264L315 265L314 264M221 265L222 266L221 265M277 265L278 266L277 265z"/>
<path style="fill:#fbdea8; stroke:none;" d="M223 266L224 267L223 266M275 266L276 267L275 266M273 267L274 268L273 267z"/>
<path style="fill:#f7ce74; stroke:none;" d="M312 267L313 268L312 267M187 268L188 269L187 268M226 268L227 269L226 268z"/>
<path style="fill:#fbdea8; stroke:none;" d="M227 268L228 269L227 268M271 268L272 269L271 268z"/>
<path style="fill:#f7ce74; stroke:none;" d="M229 269L230 270L229 269z"/>
<path style="fill:#fbdea8; stroke:none;" d="M269 269L270 270L269 269z"/>
<path style="fill:#f7ce74; stroke:none;" d="M231 270L232 271L231 270z"/>
<path style="fill:#fbdea8; stroke:none;" d="M232 270L233 271L232 270M266 270L267 271L266 270z"/>
<path style="fill:#f7ce74; stroke:none;" d="M267 270L268 271L267 270z"/>
<path style="fill:#f5be47; stroke:none;" d="M234 271L235 272L234 271z"/>
<path style="fill:#fbdea8; stroke:none;" d="M235.667 271.333L236.333 271.667L235.667 271.333M262.667 271.333L263.333 271.667L262.667 271.333z"/>
<path style="fill:#f7ce74; stroke:none;" d="M264 271L265 272L264 271M238 272L239 273L238 272z"/>
<path style="fill:#fbdea8; stroke:none;" d="M239.667 272.333L240.333 272.667L239.667 272.333M258 272L258 273L261 273L258 272z"/>
<path style="fill:#f7ce74; stroke:none;" d="M244 273L244 274L255 274L244 273M307 273L308 274L307 273M306 274L307 275L306 274M305 275L306 276L305 275M304 276L305 277L304 276M303 277L304 278L303 277M200 281L201 282L200 281M297 282L298 283L297 282M204 284L205 285L204 284M294 284L295 285L294 284M293 285L294 286L293 285M207 286L208 287L207 286M291 286L292 287L291 286M209 287L210 288L209 287z"/>
<path style="fill:#fbdea8; stroke:none;" d="M288 288L289 289L288 288M212 289L213 290L212 289z"/>
<path style="fill:#f7ce74; stroke:none;" d="M286 289L287 290L286 289z"/>
<path style="fill:#fbdea8; stroke:none;" d="M214 290L215 291L214 290M284 290L285 291L284 290M216 291L217 292L216 291z"/>
<path style="fill:#f7ce74; stroke:none;" d="M217 291L218 292L217 291z"/>
<path style="fill:#fbdea8; stroke:none;" d="M282 291L283 292L282 291z"/>
<path style="fill:#f7ce74; stroke:none;" d="M219 292L220 293L219 292M279 292L280 293L279 292z"/>
<path style="fill:#fbdea8; stroke:none;" d="M280 292L281 293L280 292M221 293L222 294L221 293z"/>
<path style="fill:#f7ce74; stroke:none;" d="M222 293L223 294L222 293z"/>
<path style="fill:#fbdea8; stroke:none;" d="M277 293L278 294L277 293M224 294L225 295L224 294z"/>
<path style="fill:#f5be47; stroke:none;" d="M225 294L226 295L225 294M273 294L274 295L273 294z"/>
<path style="fill:#fbdea8; stroke:none;" d="M274 294L275 295L274 294M227 295L228 296L227 295z"/>
<path style="fill:#f7ce74; stroke:none;" d="M228.667 295.333L229.333 295.667L228.667 295.333M269.667 295.333L270.333 295.667L269.667 295.333z"/>
<path style="fill:#fbdea8; stroke:none;" d="M271 295L272 296L271 295M231 296L232 297L231 296z"/>
<path style="fill:#f7ce74; stroke:none;" d="M232 296L233 297L232 296M266 296L267 297L266 296z"/>
<path style="fill:#fbdea8; stroke:none;" d="M267 296L268 297L267 296M235 297L236 314L237 314L235 297M262 297L262 314L263 314L264 297L262 297M205.667 314.333L206.333 314.667L205.667 314.333z"/>
<path style="fill:#f7ce74; stroke:none;" d="M207.667 314.333L208.333 314.667L207.667 314.333M290.667 314.333L291.333 314.667L290.667 314.333z"/>
<path style="fill:#fbdea8; stroke:none;" d="M292 314L293 315L292 314M202.667 315.333L203.333 315.667L202.667 315.333z"/>
<path style="fill:#f5be47; stroke:none;" d="M294 315L295 316L294 315z"/>
<path style="fill:#fbdea8; stroke:none;" d="M295.667 315.333L296.333 315.667L295.667 315.333z"/>
<path style="fill:#f7ce74; stroke:none;" d="M200 316L201 317L200 316z"/>
<path style="fill:#f5be47; stroke:none;" d="M298 316L299 317L298 316z"/>
<path style="fill:#fbdea8; stroke:none;" d="M299 316L300 317L299 316M197 317L198 318L197 317z"/>
<path style="fill:#f7ce74; stroke:none;" d="M198 317L199 318L198 317M301 317L302 318L301 317M195 318L196 319L195 318M303 318L304 319L303 318M193 319L194 320L193 319M305 319L306 320L305 319z"/>
<path style="fill:#fbdea8; stroke:none;" d="M307 320L308 321L307 320z"/>
<path style="fill:#f7ce74; stroke:none;" d="M190 321L191 322L190 321M311 323L312 324L311 323M186 324L187 325L186 324M180 330L181 331L180 330M179 331L180 332L179 331M319 331L320 332L319 331M177 334L178 335L177 334M322 335L323 336L322 335M175 337L176 338L175 337M323 337L324 338L323 337M174 339L175 340L174 339M324 339L325 340L324 339z"/>
<path style="fill:#fbdea8; stroke:none;" d="M211.667 340.333L212.333 340.667L211.667 340.333z"/>
<path style="fill:#ffffff; stroke:none;" d="M198 353L301 353C298.107 346.424 293.221 341.826 286 340.379C274.459 338.066 260.765 340 249 340C237.551 340 224.212 338.121 213 340.518C205.722 342.073 200.957 346.279 198 353z"/>
<path style="fill:#fbdea8; stroke:none;" d="M287 340L288 341L287 340M173 341L174 342L173 341z"/>
<path style="fill:#f7ce74; stroke:none;" d="M208 341L209 342L208 341z"/>
<path style="fill:#fbdea8; stroke:none;" d="M209 341L210 342L209 341M289 341L290 342L289 341z"/>
<path style="fill:#f7ce74; stroke:none;" d="M290 341L291 342L290 341M325 341L326 342L325 341M173 342L174 343L173 342M206 342L207 343L206 342M292 342L293 343L292 342z"/>
<path style="fill:#fbdea8; stroke:none;" d="M326 343L327 344L326 343z"/>
<path style="fill:#f7ce74; stroke:none;" d="M172.333 344.667L172.667 345.333L172.333 344.667M295 344L296 345L295 344M326 344L327 345L326 344M202 345L203 346L202 345M201 346L202 347L201 346z"/>
<path style="fill:#fbdea8; stroke:none;" d="M327 346L328 347L327 346M171 347L172 348L171 347z"/>
<path style="fill:#f7ce74; stroke:none;" d="M327 347L328 348L327 347z"/>
<path style="fill:#f5be47; stroke:none;" d="M171 348L172 349L171 348z"/>
<path style="fill:#f7ce74; stroke:none;" d="M199 349L200 350L199 349z"/>
<path style="fill:#fbdea8; stroke:none;" d="M299 349L300 350L299 349M170 350L170 353L171 353L170 350M328.333 350.667L328.667 351.333L328.333 350.667M198 351L199 352L198 351M300 351L301 352L300 351z"/>
<path style="fill:#f7ce74; stroke:none;" d="M328 352L329 353L328 352M170.333 353.667L170.667 354.333L170.333 353.667M197 353L198 354L197 353z"/>
<path style="fill:#fbdea8; stroke:none;" d="M198 353L198 354L302 354L270 353L198 353M329 354L329 369L330 369L329 354z"/>
<path style="fill:#f5be47; stroke:none;" d="M170 355L170 368L171 368L170 355z"/>
<path style="fill:#f7ce74; stroke:none;" d="M170.333 368.667L170.667 369.333L170.333 368.667z"/>
<path style="fill:#fbdea8; stroke:none;" d="M170.333 370.667L170.667 371.333L170.333 370.667z"/>
<path style="fill:#f7ce74; stroke:none;" d="M328 370L329 371L328 370z"/>
<path style="fill:#fbdea8; stroke:none;" d="M328 371L329 372L328 371z"/>
<path style="fill:#f7ce74; stroke:none;" d="M327 373L328 374L327 373M172 374L173 375L172 374M175 377L176 378L175 377M323 377L324 378L323 377M177 378L178 379L177 378M321 378L322 379L321 378z"/>
<path style="fill:#fbdea8; stroke:none;" d="M179.667 379.333L180.333 379.667L179.667 379.333z"/>
<path style="fill:#f7ce74; stroke:none;" d="M181 379L181 380L318 380C307.258 375.492 288.682 379 277 379L181 379z"/>
<path style="fill:#fbdea8; stroke:none;" d="M318.667 379.333L319.333 379.667L318.667 379.333z"/>
</svg>
